<svg xml:space="preserve" style="enable-background:new 0 0 100 100;" viewBox="0 0 100 100" height="100px" width="100px" y="0px" x="0px" xmlns:xlink="http://www.w3.org/1999/xlink" xmlns="http://www.w3.org/2000/svg" id="Layer_1" version="1.1">
<style type="text/css">
	.st0{fill:#A2BFF4;}
	.st1{fill:#EAB30A;}
	.st2{fill:none;stroke:#000000;stroke-width:2;stroke-linecap:round;stroke-miterlimit:10;}
	.st3{display:none;}
	.st4{display:inline;fill:none;stroke:#061434;stroke-width:2.5;stroke-linecap:round;stroke-miterlimit:10;}
	.st5{fill:none;stroke:#FFFFFF;stroke-linecap:round;stroke-miterlimit:10;}
	.st6{fill:#6679AC;}
	.st7{fill:none;stroke:#061434;stroke-width:2;stroke-linecap:round;stroke-miterlimit:10;}
	.st8{fill:#0FB981;}
</style>
<path d="M63.5,14.8c-0.5-0.2-1-0.5-1.6-0.7c-6.9-3-14.4-4.7-21.9-4c-8,0.7-16,4.4-21.1,11c-4.3,5.6-6.2,12.8-7.6,19.9  c-1,5.2-1.8,10.5-2.2,15.7c-0.4,5.1-0.9,10.4,0,15.5c0.7,4,2.4,8,5.4,10.8c3.2,3,7.9,3.9,12.1,3.5c4.9-0.4,9.6-2.4,14.3-3.9  c8-2.7,16-5.5,24-8.3c6.2-2.2,12.7-4.4,17.8-9c5-4.5,8.2-11.3,8.6-18.2c0.5-7.6-2.2-15.5-8.1-20.2C77.2,22,70.5,18,63.5,14.8z" class="st0"/>
<g>
	<path d="M77.9,82.7l-38.6,8.8c-1.7,0.4-3.3-0.7-3.7-2.3L24,38.6c-0.4-1.7,0.7-3.3,2.3-3.7l38.6-8.8   c1.7-0.4,3.3,0.7,3.7,2.3L80.2,79C80.6,80.7,79.5,82.3,77.9,82.7z" class="st1"/>
	<g>
		<path d="M30.9,68.9L24,38.8c-0.4-1.8,0.7-3.5,2.5-3.9l38.2-8.8c1.8-0.4,3.5,0.7,3.9,2.5l1.1,4.6" class="st2"/>
		<path d="M71,38.9l9.1,39.9c0.4,1.8-0.7,3.5-2.5,3.9l-38.2,8.8c-1.8,0.4-3.5-0.7-3.9-2.5L32,73.6" class="st2"/>
	</g>
	<g class="st3">
		<line y2="39.8" x2="52.6" y1="44.2" x1="33.6" class="st4"/>
		<line y2="46.6" x2="43.9" y1="48.7" x1="34.6" class="st4"/>
		<line y2="46.7" x2="64.5" y1="53.3" x1="35.7" class="st4"/>
		<line y2="51.2" x2="65.5" y1="57.8" x1="36.7" class="st4"/>
		<line y2="60.2" x2="47" y1="62.3" x1="37.7" class="st4"/>
		<line y2="62.5" x2="57.8" y1="66.9" x1="38.8" class="st4"/>
		<line y2="68.2" x2="54" y1="71.4" x1="39.8" class="st4"/>
		<line y2="69.8" x2="67.7" y1="76" x1="40.8" class="st4"/>
		<line y2="75.2" x2="64.8" y1="80.5" x1="41.9" class="st4"/>
	</g>
	<g>
		<path d="M56,32.1l6.7-1.5c1.1-0.2,2.1,0.4,2.4,1.5l0.6,2.6" class="st5"/>
		<line y2="32.4" x2="54.4" y1="32.9" x1="52.5" class="st5"/>
		<line y2="34.5" x2="45.5" y1="37.6" x1="31.7" class="st5"/>
		<line y2="41.5" x2="28.8" y1="58.7" x1="32.7" class="st5"/>
		<line y2="60.7" x2="33.2" y1="62.8" x1="33.7" class="st5"/>
		<line y2="66.9" x2="34.6" y1="79.6" x1="37.5" class="st5"/>
		<line y2="81.4" x2="37.9" y1="83.8" x1="38.5" class="st5"/>
		<line y2="86.5" x2="42.3" y1="85.5" x1="46.9" class="st5"/>
		<line y2="85.2" x2="48.3" y1="79.9" x1="71.2" class="st5"/>
		<path d="M71.9,62.1L75.3,77c0.2,1.1-0.4,2.1-1.5,2.4l-1.4,0.3" class="st5"/>
		<line y2="52.9" x2="69.8" y1="36.1" x1="65.9" class="st5"/>
	</g>
</g>
<g>
	<path d="M67.1,73.2l-38.4,9.6c-1.7,0.4-3.3-0.6-3.8-2.3L12.3,30.2c-0.4-1.7,0.6-3.3,2.3-3.8l38.4-9.6   c1.7-0.4,3.3,0.6,3.8,2.3l12.7,50.4C69.8,71.1,68.8,72.8,67.1,73.2z" class="st6"/>
	<g>
		<path d="M19.9,60.4l-7.5-30c-0.4-1.8,0.6-3.5,2.4-4l38.1-9.6c1.8-0.4,3.5,0.6,4,2.4l1.2,4.6" class="st2"/>
		<path d="M59.3,29.6l10,39.7c0.4,1.8-0.6,3.5-2.4,4l-38.1,9.6c-1.8,0.4-3.5-0.6-4-2.4L21,65" class="st2"/>
	</g>
	<g>
		<line y2="30.8" x2="40.9" y1="35.6" x1="22" class="st7"/>
		<line y2="37.8" x2="32.4" y1="40.1" x1="23.1" class="st7"/>
		<line y2="37.4" x2="52.9" y1="44.6" x1="24.3" class="st7"/>
		<line y2="42" x2="54.1" y1="49.1" x1="25.4" class="st7"/>
		<line y2="51.3" x2="35.8" y1="53.7" x1="26.5" class="st7"/>
		<line y2="53.4" x2="46.6" y1="58.2" x1="27.7" class="st7"/>
		<line y2="59.2" x2="42.9" y1="62.7" x1="28.8" class="st7"/>
		<line y2="60.5" x2="56.7" y1="67.2" x1="29.9" class="st7"/>
		<line y2="66" x2="53.9" y1="71.7" x1="31.1" class="st7"/>
	</g>
	<g>
		<path d="M44.1,23l6.6-1.7c1.1-0.3,2.1,0.4,2.4,1.4l0.7,2.6" class="st5"/>
		<line y2="23.4" x2="42.6" y1="23.9" x1="40.7" class="st5"/>
		<line y2="25.6" x2="33.7" y1="29.1" x1="19.9" class="st5"/>
		<line y2="33" x2="17.1" y1="50.1" x1="21.5" class="st5"/>
		<line y2="52.1" x2="21.9" y1="54.2" x1="22.5" class="st5"/>
		<line y2="58.3" x2="23.5" y1="70.9" x1="26.7" class="st5"/>
		<line y2="72.7" x2="27.1" y1="75.1" x1="27.7" class="st5"/>
		<line y2="77.8" x2="31.6" y1="76.6" x1="36.2" class="st5"/>
		<line y2="76.3" x2="37.6" y1="70.5" x1="60.3" class="st5"/>
		<path d="M60.7,52.7l3.7,14.8c0.3,1.1-0.4,2.1-1.4,2.4l-1.4,0.4" class="st5"/>
		<line y2="43.5" x2="58.4" y1="26.8" x1="54.2" class="st5"/>
	</g>
</g>
<g>
	<path d="M69.8,79.1H30.2c-1.7,0-3.1-1.4-3.1-3.1V24c0-1.7,1.4-3.1,3.1-3.1h39.6c1.7,0,3.1,1.4,3.1,3.1V76   C72.9,77.7,71.5,79.1,69.8,79.1z" class="st8"/>
	<g>
		<path d="M27.1,55.2v-31c0-1.8,1.5-3.3,3.3-3.3h39.2c1.8,0,3.3,1.5,3.3,3.3V29" class="st2"/>
		<path d="M72.9,34.9v40.9c0,1.8-1.5,3.3-3.3,3.3H30.4c-1.8,0-3.3-1.5-3.3-3.3V59.9" class="st2"/>
	</g>
	<g>
		<line y2="31.6" x2="54.8" y1="31.6" x1="35.2" class="st7"/>
		<line y2="36.3" x2="44.7" y1="36.3" x1="35.2" class="st7"/>
		<line y2="40.9" x2="64.8" y1="40.9" x1="35.2" class="st7"/>
		<line y2="45.6" x2="64.8" y1="45.6" x1="35.2" class="st7"/>
		<line y2="50.3" x2="44.7" y1="50.3" x1="35.2" class="st7"/>
		<line y2="54.9" x2="54.8" y1="54.9" x1="35.2" class="st7"/>
		<line y2="59.6" x2="49.7" y1="59.6" x1="35.2" class="st7"/>
		<line y2="64.2" x2="62.8" y1="64.2" x1="35.2" class="st7"/>
		<line y2="68.9" x2="58.8" y1="68.9" x1="35.2" class="st7"/>
	</g>
	<g>
		<path d="M59.7,24.8h6.9c1.1,0,2,0.9,2,2v2.7" class="st5"/>
		<line y2="24.8" x2="58.2" y1="24.8" x1="56.2" class="st5"/>
		<line y2="24.8" x2="49" y1="24.8" x1="34.8" class="st5"/>
		<line y2="27.9" x2="31.2" y1="45.6" x1="31.2" class="st5"/>
		<line y2="47.6" x2="31.2" y1="49.8" x1="31.2" class="st5"/>
		<line y2="54" x2="31.2" y1="67" x1="31.2" class="st5"/>
		<line y2="68.9" x2="31.2" y1="71.4" x1="31.2" class="st5"/>
		<line y2="74.9" x2="34.3" y1="74.9" x1="39" class="st5"/>
		<line y2="74.9" x2="40.5" y1="74.9" x1="63.9" class="st5"/>
		<path d="M68.6,57.7v15.2c0,1.1-0.9,2-2,2h-1.4" class="st5"/>
		<line y2="48.2" x2="68.6" y1="31" x1="68.6" class="st5"/>
	</g>
</g>
</svg>