<svg xml:space="preserve" style="enable-background:new 0 0 100 100;" viewBox="0 0 100 100" height="100px" width="100px" y="0px" x="0px" xmlns:xlink="http://www.w3.org/1999/xlink" xmlns="http://www.w3.org/2000/svg" id="Layer_1" version="1.1">
<style type="text/css">
	.st0{fill:#A2BFF4;}
	.st1{fill:none;stroke:#000000;stroke-width:2;stroke-linecap:round;stroke-miterlimit:10;}
	.st2{fill:#EAB30A;stroke:#000000;stroke-width:2;stroke-miterlimit:10;}
	.st3{fill:#0FB981;stroke:#000000;stroke-width:2;stroke-miterlimit:10;}
	.st4{fill:#6679AC;stroke:#000000;stroke-width:2;stroke-miterlimit:10;}
	.st5{fill:none;stroke:#000000;stroke-width:2;stroke-miterlimit:10;}
	.st6{opacity:0.5;fill:#FFFFFF;}
	.st7{fill:none;stroke:#FFFFFF;stroke-linecap:round;stroke-miterlimit:10;}
</style>
<path d="M13.5,70.4c1.6,0.9,3,2,4.4,3.5c2.4,2.6,4.5,5.5,7.6,7.3c1.4,0.8,2.9,1.3,4.5,1.5c5.4,1,10.9-0.1,16.3-1  c5.2-0.8,10.2-1,15.1-3.3c2.6-1.2,5.5-3,7.3-5.3c2.2-2.7,3.5-5.9,6.2-8.2c2.4-2,5.3-3.2,8-4.7c6.1-3.2,10.5-9.1,11.3-16  c0.7-6.2-1.6-11.4-5.6-16C84.9,23.7,84,17.3,80,12.9c-5.7-6.3-14.3-3-21.5-2.1c-8,1-16-0.9-23.7-2.6c-6.8-1.5-14.7-4-20.6,1.1  c-3.8,3.3-4.8,8.8-4.3,13.8c1,10.2,6.7,19.4,1.6,29.5C10.1,55,8.5,57.1,7,59.4c-0.8,1.2-1.6,2.5-1.5,4c0.1,2.4,2.3,4.2,4.4,5.2  C11.2,69.2,12.4,69.7,13.5,70.4z" class="st0"/>
<line y2="5.9" x2="49.9" y1="13.9" x1="49.9" class="st1"/>
<line y2="17.1" x2="20.8" y1="23.2" x1="26.9" class="st1"/>
<line y2="17" x2="78.4" y1="23.5" x1="71.9" class="st1"/>
<line y2="46.3" x2="87.4" y1="46.3" x1="79.4" class="st1"/>
<line y2="46.3" x2="20.8" y1="46.3" x1="12.8" class="st1"/>
<path d="M75,43.1c0-14.3-12.1-25.9-26.6-24.9c-12.1,0.8-22,10.3-23.2,22.4c-0.9,9.1,3.1,17.3,9.6,22.4  c1.6,1.3,2.7,3.2,3,5.2l1.2,8.8h22.3l1.2-8.8c0.3-2.1,1.4-4,3-5.2C71.2,58.3,75,51.1,75,43.1z" class="st2"/>
<path d="M50,92.7c6.1,0,11.1-3.8,11.1-8.4H38.9C38.9,89,43.9,92.7,50,92.7z" class="st3"/>
<path d="M61.2,81.4H38.8c-1.2,0-2.3-1-2.3-2.3v0c0-1.2,1-2.3,2.3-2.3h22.4c1.2,0,2.3,1,2.3,2.3v0  C63.4,80.4,62.4,81.4,61.2,81.4z" class="st4"/>
<path d="M61.2,85.9H38.8c-1.2,0-2.3-1-2.3-2.3l0,0c0-1.2,1-2.3,2.3-2.3h22.4c1.2,0,2.3,1,2.3,2.3l0,0  C63.4,84.9,62.4,85.9,61.2,85.9z" class="st4"/>
<g>
	<path d="M53.8,55.7v15.5c0,2.1-1.7,3.8-3.8,3.8h0c-2.1,0-3.8-1.7-3.8-3.8V55.7" class="st5"/>
	<path d="M53.8,55.7c-0.2-1-0.9-4.6,0.9-8.4c1.5-2.9,3.7-4.5,4.7-5.1" class="st1"/>
	<path d="M46.2,55.7c0.2-1,0.9-4.6-0.9-8.4c-1.5-2.9-3.7-4.5-4.7-5.1" class="st1"/>
	<path d="M55.1,46.1c-1.2-1.5-3.1-2.4-5.1-2.4c-2.1,0-4.1,1-5.3,2.6" class="st1"/>
	<line y2="43.7" x2="50" y1="36.5" x1="50" class="st1"/>
	<line y2="55.7" x2="56.3" y1="55.7" x1="43.7" class="st1"/>
</g>
<path d="M48.2,32.4c1.2-0.8,2.1-2.4,1.7-3.8c-0.3-1-1.1-1.7-1.9-2.2c-1.8-1-4.2-1.2-6.1-0.3c-1.6,0.7-2.8,2-4,3.3  c-0.8,1-1.6,2-2.1,3.2c-0.5,1.2-0.6,2.6,0,3.7c0.6,1.2,1.9,2,3.2,1.7c1.1-0.2,1.9-1.2,2.5-2c0.7-1,1.5-2,2.7-2.3  C45.6,33.4,47,33.2,48.2,32.4z" class="st6"/>
<path d="M32.7,31c3.8-5.5,10.1-9.1,17.3-9.1" class="st7"/>
<path d="M29,42.9c0-2.9,0.6-5.7,1.7-8.2" class="st7"/>
<path d="M31.1,52.2c-0.7-1.5-1.3-3.1-1.7-4.8" class="st7"/>
<path d="M40.6,61.7c-3.2-1.6-5.9-4-7.9-6.8" class="st7"/>
</svg>