<svg xml:space="preserve" style="enable-background:new 0 0 100 100;" viewBox="0 0 100 100" height="100px" width="100px" y="0px" x="0px" xmlns:xlink="http://www.w3.org/1999/xlink" xmlns="http://www.w3.org/2000/svg" id="Layer_1" version="1.1">
<style type="text/css">
	.st0{fill:#A2BFF4;}
	.st1{fill:#8594BD;}
	.st2{fill:#6679AC;}
	.st3{fill:none;stroke:#000000;stroke-width:2;stroke-linecap:round;stroke-miterlimit:10;}
	.st4{fill:#F43F5F;}
	.st5{fill:#F6657F;}
	.st6{fill:#EEC23B;}
	.st7{fill:#EAB30A;}
	.st8{fill:#0FB981;stroke:#000000;stroke-width:2;stroke-linecap:round;stroke-miterlimit:10;}
	.st9{fill:#6679AC;stroke:#000000;stroke-width:2;stroke-linecap:round;stroke-miterlimit:10;}
	.st10{fill:#FA7318;stroke:#000000;stroke-width:2;stroke-linecap:round;stroke-miterlimit:10;}
	.st11{fill:#999999;stroke:#000000;stroke-width:2;stroke-linecap:round;stroke-miterlimit:10;}
	.st12{fill:none;stroke:#FFFFFF;stroke-linecap:round;stroke-miterlimit:10;}
</style>
<path d="M91.7,48.2c0.2-3.3-0.3-6.7-1.9-9.3c-1.6-2.6-4.8-3.9-7.2-5.6C74,26.8,65.3,19.6,55.4,15.4  c-10.2-4.4-21-2.9-29.9,2.5c-1.3,0.8-2.5,1.6-3.6,2.5c-4.3,3.3-8.5,7.7-11.4,12.6c-0.4,0.7-0.8,1.4-1.1,2.1  c-3,6.4,0.5,12.9,3.9,18.8c2.9,5.1,6.7,9.7,10.8,13.8c5,5,10.5,9.3,16.5,12.9C44.6,83,49,85.9,53.6,87c4.8,1.1,9.6-1.8,13-4.8  c6.3-5.6,11.9-12.1,17.7-18.2c2.8-2.9,5.2-5.5,6.3-9.5C91.2,52.6,91.6,50.4,91.7,48.2z" class="st0"/>
<g>
	<path d="M60.6,21.6c0-1.7-1.3-3-3-3H42.3c-1.7,0-3,1.3-3,3v37.6l21.4-21.4V21.6z" class="st1"/>
	<polygon points="39.3,59.2 39.3,82.5 60.6,82.5 60.6,37.8" class="st2"/>
</g>
<path d="M60.6,82.5H39.3v-61c0-1.7,1.3-3,3-3h15.4c1.7,0,3,1.3,3,3V82.5z" class="st3"/>
<g>
	<path d="M63.6,32c-1.7,0-3,1.3-3,3v47.5h12.7V32H63.6z" class="st4"/>
	<path d="M75.2,32h-1.9v50.5h2.9c1.1,0,2-0.9,2-2V35C78.2,33.3,76.9,32,75.2,32z" class="st5"/>
</g>
<path d="M76.2,82.5H60.6V35c0-1.7,1.3-3,3-3h11.6c1.7,0,3,1.3,3,3v45.5C78.2,81.6,77.3,82.5,76.2,82.5z" class="st3"/>
<g>
	<path d="M24.7,44.3c-1.7,0-3,1.3-3,3v33.3c0,1.1,0.9,2,2,2h3V44.3H24.7z" class="st6"/>
	<path d="M39.3,47.3c0-1.7-1.3-3-3-3h-9.6v38.3h12.6V47.3z" class="st7"/>
</g>
<path d="M39.3,82.5H23.7c-1.1,0-2-0.9-2-2V47.3c0-1.7,1.3-3,3-3h11.6c1.7,0,3,1.3,3,3V82.5z" class="st3"/>
<path d="M55.8,82.5H44.1v-8.2c0-0.6,0.4-1,1-1h9.7c0.6,0,1,0.4,1,1V82.5z" class="st8"/>
<path d="M34.3,82.5h-7.6v-6.6c0-0.6,0.4-1,1-1h5.6c0.6,0,1,0.4,1,1V82.5z" class="st9"/>
<path d="M73.2,82.5h-7.6v-6.6c0-0.6,0.4-1,1-1h5.6c0.6,0,1,0.4,1,1V82.5z" class="st10"/>
<g>
	<line y2="68.1" x2="73.9" y1="68.1" x1="65" class="st3"/>
	<line y2="61" x2="73.9" y1="61" x1="65" class="st3"/>
	<line y2="53.9" x2="73.9" y1="53.9" x1="65" class="st3"/>
	<line y2="46.7" x2="73.9" y1="46.7" x1="65" class="st3"/>
	<line y2="39.6" x2="73.9" y1="39.6" x1="65" class="st3"/>
</g>
<g>
	<line y2="68.1" x2="35" y1="68.1" x1="26" class="st3"/>
	<line y2="60.2" x2="35" y1="60.2" x1="26" class="st3"/>
	<line y2="52.4" x2="35" y1="52.4" x1="26" class="st3"/>
</g>
<g>
	<path d="M54.8,29.6h-9.7c-0.6,0-1-0.4-1-1v-2.4c0-0.6,0.4-1,1-1h9.7c0.6,0,1,0.4,1,1v2.4   C55.8,29.2,55.4,29.6,54.8,29.6z" class="st11"/>
	<path d="M54.8,39.3h-9.7c-0.6,0-1-0.4-1-1v-2.4c0-0.6,0.4-1,1-1h9.7c0.6,0,1,0.4,1,1v2.4   C55.8,38.9,55.4,39.3,54.8,39.3z" class="st11"/>
	<path d="M54.8,49h-9.7c-0.6,0-1-0.4-1-1v-2.4c0-0.6,0.4-1,1-1h9.7c0.6,0,1,0.4,1,1V48C55.8,48.6,55.4,49,54.8,49z" class="st11"/>
	<path d="M54.8,58.7h-9.7c-0.6,0-1-0.4-1-1v-2.4c0-0.6,0.4-1,1-1h9.7c0.6,0,1,0.4,1,1v2.4   C55.8,58.3,55.4,58.7,54.8,58.7z" class="st11"/>
	<path d="M54.8,68.4h-9.7c-0.6,0-1-0.4-1-1V65c0-0.6,0.4-1,1-1h9.7c0.6,0,1,0.4,1,1v2.4C55.8,68,55.4,68.4,54.8,68.4z" class="st11"/>
</g>
<g>
	<g>
		<g>
			<line y2="79.5" x2="23.9" y1="72.1" x1="23.9" class="st12"/>
			<line y2="64.4" x2="23.9" y1="55.3" x1="23.9" class="st12"/>
			<line y2="53" x2="23.9" y1="48.7" x1="23.9" class="st12"/>
			<line y2="69.6" x2="23.9" y1="68" x1="23.9" class="st12"/>
		</g>
	</g>
</g>
<g>
	<g>
		<g>
			<line y2="40.4" x2="75.8" y1="35.3" x1="75.8" class="st12"/>
			<line y2="63.7" x2="75.8" y1="58.6" x1="75.8" class="st12"/>
			<line y2="56.9" x2="75.8" y1="46.2" x1="75.8" class="st12"/>
			<line y2="78.3" x2="75.8" y1="67.6" x1="75.8" class="st12"/>
			<line y2="44.8" x2="75.8" y1="43.7" x1="75.8" class="st12"/>
		</g>
	</g>
</g>
<g>
	<g>
		<g>
			<g>
				<line y2="37.5" x2="41.4" y1="45.2" x1="41.4" class="st12"/>
				<line y2="47.1" x2="41.4" y1="50.8" x1="41.4" class="st12"/>
				<line y2="33.1" x2="41.4" y1="34.4" x1="41.4" class="st12"/>
			</g>
			<g>
				<path d="M41.4,23.3c0.1-1.3,1.1-2.5,2.4-2.7c1.3-0.1,2.6,0,3.9-0.1" class="st12"/>
				<line y2="25.2" x2="41.4" y1="28.9" x1="41.4" class="st12"/>
				<line y2="20.6" x2="52.1" y1="20.6" x1="50.8" class="st12"/>
			</g>
		</g>
	</g>
</g>
</svg>