<svg xml:space="preserve" style="enable-background:new 0 0 100 100;" viewBox="0 0 100 100" height="100px" width="100px" y="0px" x="0px" xmlns:xlink="http://www.w3.org/1999/xlink" xmlns="http://www.w3.org/2000/svg" id="Layer_1" version="1.1">
<style type="text/css">
	.st0{fill:#A2BFF4;}
	.st1{fill:#FA7318;}
	.st2{fill:#EAB30A;}
	.st3{fill:none;stroke:#000000;stroke-width:2;stroke-miterlimit:10;}
	.st4{fill:#F43F5F;}
	.st5{fill:#F6657F;}
	.st6{fill:#3FC79A;}
	.st7{fill:#0FB981;}
	.st8{fill:#8594BD;}
	.st9{fill:#6679AC;}
	.st10{fill:none;stroke:#FFFFFF;stroke-linecap:round;stroke-miterlimit:10;}
	.st11{fill:#B3B3B3;stroke:#000000;stroke-width:2;stroke-miterlimit:10;}
	.st12{fill:none;stroke:#000000;stroke-width:2;stroke-linecap:round;stroke-miterlimit:10;}
	.st13{fill:#6679AC;stroke:#000000;stroke-width:2;stroke-miterlimit:10;}
	.st14{fill:#8594BD;stroke:#000000;stroke-width:2;stroke-miterlimit:10;}
	.st15{fill:#FFFFFF;}
</style>
<path d="M82.9,15.7c-0.4-0.8-0.8-1.5-1.3-2.2c-4-6.3-11.4-6.6-18.2-6.7c-5.9,0-11.7,1-17.4,2.5  c-6.8,1.9-13.4,4.7-19.5,8.4c-4.2,2.5-8.9,5-12.1,8.7c-3.4,3.9-3.3,10-2.4,14.8c1.6,9,4.4,17.7,6.8,26.5c1.7,6.2,2.4,13.4,5.4,19.1  c0.7,1.3,1.9,2.5,3.3,3c1.4,0.4,2.9,0.1,4.2-0.3c5-1.6,9.6-4.4,14.3-6.6c9.9-4.5,20.5-8.7,29.2-15.6c8.9-7.1,13.1-18,13-29.3  c0-1.6-0.1-3.2-0.3-4.7C87.3,27.4,85.7,21,82.9,15.7z" class="st0"/>
<path d="M50,68v22.8c0.7,0,5.4-5.1,5.4-11.4S53,68,50,68z" class="st1"/>
<path d="M44.6,79.4c0,6.3,4.5,11.4,5.4,11.4V68C47,68,44.6,73.1,44.6,79.4z" class="st2"/>
<ellipse ry="11.4" rx="5.4" cy="79.4" cx="50" class="st3"/>
<g>
	<path d="M50,62.4v9.1h10c0.9,0,1.7-0.8,1.7-1.7v-7.4H50z" class="st4"/>
	<path d="M38.3,62.4v7.4c0,0.9,0.8,1.7,1.7,1.7h10v-9.1H38.3z" class="st5"/>
</g>
<path d="M60,71.5H40c-0.9,0-1.7-0.8-1.7-1.7v-7.4h23.4v7.4C61.7,70.8,61,71.5,60,71.5z" class="st3"/>
<g>
	<path d="M41.7,71.5v4.1c0,0.9,0.8,1.7,1.7,1.7H50v-5.8H41.7z" class="st6"/>
	<path d="M50,71.5v5.8h6.6c0.9,0,1.7-0.8,1.7-1.7v-4.1H50z" class="st7"/>
</g>
<path d="M56.6,77.3H43.4c-0.9,0-1.7-0.8-1.7-1.7v-4.1h16.5v4.1C58.3,76.5,57.5,77.3,56.6,77.3z" class="st3"/>
<g>
	<path d="M50,6.3c-0.9,0-2,1.1-2.7,1.6c-1.5,1.3-2.9,2.7-4.2,4.3c-3.6,4.6-4.9,9.4-4.9,15.1c0,3.5,0,7,0,10.5   c0,7.4,0,14.8,0,22.1c0,0.8,0,1.6,0,2.4c0,0,5.9,0,11.8,0L50,6.3C50,6.3,50,6.3,50,6.3z" class="st8"/>
	<path d="M61.7,46.6c0-4.1,0-8.2,0-12.3c0-3.4,0.2-6.8,0-10.2c-0.1-0.9-0.2-1.8-0.3-2.7c-0.7-4-2.7-7.5-5.4-10.6   c-1.2-1.4-3.8-4.7-6-4.7v56.1c5.8,0,11.7,0,11.7,0C61.7,57.1,61.7,51.9,61.7,46.6z" class="st9"/>
</g>
<path d="M61.6,24.2c-0.1-0.9-0.2-1.8-0.3-2.7c-0.7-4-2.7-7.5-5.4-10.6c-1.2-1.4-3.8-4.7-6-4.7c-0.9,0-2,1.1-2.7,1.6  c-1.5,1.3-2.9,2.7-4.2,4.3c-3.6,4.6-4.9,9.4-4.9,15.1c0,3.5,0,7,0,10.5c0,7.4,0,14.8,0,22.1c0,0.8,0,1.6,0,2.4h23.4  c0-5.2,0-10.5,0-15.7c0-4.1,0-8.2,0-12.3C61.7,31,61.9,27.6,61.6,24.2z" class="st3"/>
<path d="M41.2,51.4c0,2.8,0,5.7,0,8.5" class="st10"/>
<path d="M41.2,49.2c0,0.7,0,1.5,0,2.2" class="st10"/>
<path d="M41.2,39.8c0,1.7,0,3.5,0,5.2" class="st10"/>
<path d="M41.2,28.2c0,3.1,0,6.1,0,9.2" class="st10"/>
<path d="M41.4,24.8c-0.1,1.1-0.2,2.2-0.2,3.4" class="st10"/>
<path d="M44.1,15.9c-1.1,2.1-1.9,4.2-2.3,6.5" class="st10"/>
<path d="M47.7,10.9c-0.7,0.8-1.4,1.7-2.1,2.6c-0.2,0.3-0.4,0.5-0.5,0.8" class="st10"/>
<path d="M53.1,36h-6.2c-0.9,0-1.5-0.7-1.5-1.5v-6.2c0-0.9,0.7-1.5,1.5-1.5h6.2c0.9,0,1.5,0.7,1.5,1.5v6.2  C54.6,35.3,54,36,53.1,36z" class="st11"/>
<line y2="47.5" x2="54.4" y1="47.5" x1="45.6" class="st12"/>
<line y2="55.2" x2="54.4" y1="55.2" x1="45.6" class="st12"/>
<path d="M61.8,69.6c0,0.3,0,0.6,0.1,0.9c0.4,1.7,1.2,4.6,3.6,7.5c1.9,2.3,3.9,3.6,5.5,4.4c0.6,0.3,1.3-0.1,1.3-0.8  V53.8c0-0.5-0.1-1-0.2-1.4c-0.6-1.6-1.6-3.9-3.5-6.1c-2-2.4-4.3-3.9-5.9-4.7c-0.4-0.2-0.8,0.1-0.8,0.5V69.6z" class="st13"/>
<path d="M38.2,69.6c0,0.3,0,0.6-0.1,0.9c-0.4,1.7-1.2,4.6-3.6,7.5c-1.9,2.3-3.9,3.6-5.5,4.4c-0.6,0.3-1.3-0.1-1.3-0.8  V53.8c0-0.5,0.1-1,0.2-1.4c0.6-1.6,1.6-3.9,3.5-6.1c2-2.4,4.3-3.9,5.9-4.7c0.4-0.2,0.8,0.1,0.8,0.5V69.6z" class="st14"/>
<path d="M76.4,14.8h-0.8c-1.1,0-1.9-0.9-1.9-1.9v-0.8c0-0.8-0.7-1.5-1.5-1.5s-1.5,0.7-1.5,1.5v0.8c0,1.1-0.9,1.9-1.9,1.9H68  c-0.8,0-1.5,0.7-1.5,1.5s0.7,1.5,1.5,1.5h0.8c1.1,0,1.9,0.9,1.9,1.9v0.8c0,0.8,0.7,1.5,1.5,1.5s1.5-0.7,1.5-1.5v-0.8  c0-1.1,0.9-1.9,1.9-1.9h0.8c0.8,0,1.5-0.7,1.5-1.5S77.2,14.8,76.4,14.8z"/>
<path d="M34.2,19.4h-0.8c-1.1,0-1.9-0.9-1.9-1.9v-0.8c0-0.8-0.7-1.5-1.5-1.5s-1.5,0.7-1.5,1.5v0.8c0,1.1-0.9,1.9-1.9,1.9h-0.8  c-0.8,0-1.5,0.7-1.5,1.5s0.7,1.5,1.5,1.5h0.8c1.1,0,1.9,0.9,1.9,1.9v0.8c0,0.8,0.7,1.5,1.5,1.5s1.5-0.7,1.5-1.5v-0.8  c0-1.1,0.9-1.9,1.9-1.9h0.8c0.8,0,1.5-0.7,1.5-1.5S35.1,19.4,34.2,19.4z"/>
<path d="M75.4,31.5h-0.6c-0.8,0-1.5-0.7-1.5-1.5v-0.6c0-0.6-0.5-1.1-1.1-1.1s-1.1,0.5-1.1,1.1V30  c0,0.8-0.7,1.5-1.5,1.5H69c-0.6,0-1.1,0.5-1.1,1.1c0,0.6,0.5,1.1,1.1,1.1h0.6c0.8,0,1.5,0.7,1.5,1.5v0.6c0,0.6,0.5,1.1,1.1,1.1  s1.1-0.5,1.1-1.1v-0.6c0-0.8,0.7-1.5,1.5-1.5h0.6c0.6,0,1.1-0.5,1.1-1.1C76.5,32,76,31.5,75.4,31.5z" class="st15"/>
<path d="M23.2,30.5h-0.6c-0.8,0-1.5-0.7-1.5-1.5v-0.6c0-0.6-0.5-1.1-1.1-1.1s-1.1,0.5-1.1,1.1V29  c0,0.8-0.7,1.5-1.5,1.5h-0.6c-0.6,0-1.1,0.5-1.1,1.1c0,0.6,0.5,1.1,1.1,1.1h0.6c0.8,0,1.5,0.7,1.5,1.5v0.6c0,0.6,0.5,1.1,1.1,1.1  s1.1-0.5,1.1-1.1v-0.6c0-0.8,0.7-1.5,1.5-1.5h0.6c0.6,0,1.1-0.5,1.1-1.1C24.3,31,23.8,30.5,23.2,30.5z" class="st15"/>
<path d="M82.7,44.9h-0.5c-0.7,0-1.3-0.6-1.3-1.3V43c0-0.6-0.5-1-1-1s-1,0.5-1,1v0.5c0,0.7-0.6,1.3-1.3,1.3H77c-0.6,0-1,0.5-1,1  s0.5,1,1,1h0.5c0.7,0,1.3,0.6,1.3,1.3v0.5c0,0.6,0.5,1,1,1s1-0.5,1-1v-0.5c0-0.7,0.6-1.3,1.3-1.3h0.5c0.6,0,1-0.5,1-1  S83.3,44.9,82.7,44.9z"/>
<path d="M25.3,44.3h-0.5c-0.7,0-1.3-0.6-1.3-1.3v-0.5c0-0.6-0.5-1-1-1c-0.6,0-1,0.5-1,1V43c0,0.7-0.6,1.3-1.3,1.3h-0.5  c-0.6,0-1,0.5-1,1s0.5,1,1,1h0.5c0.7,0,1.3,0.6,1.3,1.3v0.5c0,0.6,0.5,1,1,1c0.6,0,1-0.5,1-1v-0.5c0-0.7,0.6-1.3,1.3-1.3h0.5  c0.6,0,1-0.5,1-1S25.9,44.3,25.3,44.3z"/>
</svg>