<svg xml:space="preserve" style="enable-background:new 0 0 100 100;" viewBox="0 0 100 100" height="100px" width="100px" y="0px" x="0px" xmlns:xlink="http://www.w3.org/1999/xlink" xmlns="http://www.w3.org/2000/svg" id="Layer_1" version="1.1">
<style type="text/css">
	.st0{fill:#A2BFF4;}
	.st1{fill:#DD4628;}
	.st2{fill:#A6351E;}
	.st3{fill:none;stroke:#000000;stroke-width:2;stroke-miterlimit:10;}
	.st4{fill:none;stroke:#FFFFFF;stroke-linecap:round;stroke-miterlimit:10;}
	.st5{fill:#E6E6E6;}
	.st6{fill:#FFFFFF;}
	.st7{fill:none;stroke:#000000;stroke-width:2;stroke-linecap:round;stroke-miterlimit:10;}
</style>
<path d="M42,92.7c0.6,0.2,1.3,0.3,1.9,0.5c8.3,2,17.1,2.5,25.4,0.3c8.9-2.4,17.1-8.1,21.5-16.4  c3.7-7.1,4.5-15.6,4.7-23.7c0.1-6,0-12.1-0.6-18.1c-0.6-5.8-1-11.9-3-17.4c-1.6-4.4-4.3-8.5-8.1-11C79.5,4,74.1,3.9,69.5,5.1  c-5.4,1.4-10.4,4.5-15.3,7.1c-8.5,4.5-16.9,9.3-25.3,13.9c-6.6,3.6-13.4,7.4-18.2,13.5c-4.7,6.1-7,14.2-6.1,22.1  c0.9,8.6,5.5,17,12.9,21.1C25.2,87.2,33.5,90.5,42,92.7z" class="st0"/>
<path d="M50,13c-20.4,0-37,16.6-37,37c0,20.4,16.6,37,37,37s37-16.6,37-37C87,29.6,70.4,13,50,13z M50,68.1  C40,68.1,31.9,60,31.9,50S40,31.9,50,31.9S68.1,40,68.1,50S60,68.1,50,68.1z" class="st1"/>
<path d="M54,86.8c-1.3,0.1-2.7,0.2-4,0.2c-20.4,0-37-16.6-37-37c0-20.4,16.6-37,37-37c1.4,0,2.7,0.1,4,0.2  c-18.5,2-33,17.7-33,36.8S35.5,84.8,54,86.8z" class="st2"/>
<path d="M50,13c-20.4,0-37,16.6-37,37c0,20.4,16.6,37,37,37s37-16.6,37-37C87,29.6,70.4,13,50,13z M50,68.1  C40,68.1,31.9,60,31.9,50S40,31.9,50,31.9S68.1,40,68.1,50S60,68.1,50,68.1z" class="st3"/>
<g>
	<path d="M66.9,28c-4.7-3.6-10.6-5.8-16.9-5.8c-3.8,0-7.5,0.8-10.8,2.2" class="st4"/>
	<path d="M63.8,74.1c8.3-4.8,14-13.8,14-24.1c0-7.5-2.9-14.2-7.7-19.2" class="st4"/>
	<path d="M26.3,35.6c-2.6,4.2-4,9.1-4,14.4c0,11.5,7,21.4,16.9,25.6" class="st4"/>
</g>
<g>
	<path d="M48,13c-2.2,0-4,1.8-4,4v10.9c0,2.2,1.8,4,4,4h2V13H48z" class="st5"/>
	<path d="M52,13h-2v18.9h2c2.2,0,4-1.8,4-4V17C56.1,14.8,54.3,13,52,13z" class="st6"/>
</g>
<path d="M52,31.9H48c-2.2,0-4-1.8-4-4V17c0-2.2,1.8-4,4-4H52c2.2,0,4,1.8,4,4v10.9C56.1,30.1,54.3,31.9,52,31.9z" class="st3"/>
<g>
	<path d="M48,68.1c-2.2,0-4,1.8-4,4V83c0,2.2,1.8,4,4,4h2V68.1H48z" class="st5"/>
	<path d="M52,68.1h-2V87h2c2.2,0,4-1.8,4-4V72.1C56.1,69.9,54.3,68.1,52,68.1z" class="st6"/>
</g>
<path d="M52,87H48c-2.2,0-4-1.8-4-4V72.1c0-2.2,1.8-4,4-4H52c2.2,0,4,1.8,4,4V83C56.1,85.2,54.3,87,52,87z" class="st3"/>
<g>
	<path d="M72.1,43.9h9.4v12.1h-9.4c-2.2,0-4-1.8-4-4V48C68.1,45.7,69.9,43.9,72.1,43.9z" class="st6"/>
	<path d="M83,43.9c2.2,0,4,1.8,4,4V52c0,2.2-1.8,4-4,4h-1.5V43.9H83z" class="st5"/>
</g>
<g>
	<path d="M27.9,43.9h-6.2v12.1h6.2c2.2,0,4-1.8,4-4V48C31.9,45.7,30.1,43.9,27.9,43.9z" class="st6"/>
	<path d="M18.6,43.9H17c-2.2,0-4,1.8-4,4V52c0,2.2,1.8,4,4,4h1.5h3.2V43.9H18.6z" class="st5"/>
</g>
<path d="M68.1,52V48c0-2.2,1.8-4,4-4H83c2.2,0,4,1.8,4,4V52c0,2.2-1.8,4-4,4H72.1C69.9,56.1,68.1,54.3,68.1,52z" class="st3"/>
<path d="M13,52V48c0-2.2,1.8-4,4-4h10.9c2.2,0,4,1.8,4,4V52c0,2.2-1.8,4-4,4H17C14.8,56.1,13,54.3,13,52z" class="st3"/>
<path d="M62.6,47.1c-0.5-2.8-1.8-5.4-4-7.4c-1.3-1.2-2.8-2.1-4.5-2.7" class="st7"/>
</svg>