<svg xml:space="preserve" style="enable-background:new 0 0 100 100;" viewBox="0 0 100 100" height="100px" width="100px" y="0px" x="0px" xmlns:xlink="http://www.w3.org/1999/xlink" xmlns="http://www.w3.org/2000/svg" id="Layer_1" version="1.1">
<style type="text/css">
	.st0{fill:#A2BFF4;}
	.st1{fill:#0FB981;}
	.st2{fill:#FA7318;}
	.st3{fill:#F43F5F;stroke:#000000;stroke-width:2;stroke-linejoin:round;}
	.st4{fill:#EAB30A;stroke:#000000;stroke-width:2;stroke-linejoin:round;}
	.st5{fill:none;stroke:#000000;stroke-linecap:round;stroke-miterlimit:10;}
	.st6{fill:none;stroke:#000000;stroke-width:2;stroke-linecap:round;stroke-miterlimit:10;}
</style>
<path d="M87.8,23.1C86.3,22,85,20.7,83.7,19c-2.2-3-4-6.4-7-8.5c-1.3-1-2.8-1.6-4.4-2c-5.4-1.5-10.9-0.7-16.4-0.1  c-5.3,0.5-10.2,0.3-15.3,2.5c-2.7,1.1-5.7,2.9-7.8,5.3c-2.4,2.8-3.9,6.2-6.9,8.5c-2.5,2-5.5,3.1-8.3,4.5  c-6.3,3.1-11.2,9.1-12.6,16.6c-1.2,6.7,0.7,12.5,4.3,17.9c3.5,5.2,3.9,12.2,7.5,17.3c5.2,7.3,14,4.3,21.3,3.9  c8.1-0.5,15.9,2.1,23.5,4.6c6.6,2.1,14.3,5.5,20.6,0.3c4-3.3,5.5-9.2,5.4-14.7c-0.2-11.2-5.1-21.6,0.8-32.3c1.4-2.5,3.2-4.8,4.9-7.1  c0.9-1.3,1.8-2.7,1.8-4.2c0.1-2.6-1.9-4.7-4-6C90,24.6,88.9,23.9,87.8,23.1z" class="st0"/>
<g>
	<g>
		<path d="M69.3,54.3c-1.1,0.9-2.3,1.7-3.5,2.5c-5.1,3.5-6.1,4.9-6.1,11c0,0.2,0,0.4,0,0.6c0,1.1-0.9,2-2,2h-6.8    c-1.1,0-2-0.9-2-2V68c0-3.9,0.3-10.4,2.6-13.6c3.8-5.4,11.9-6.3,11.9-14.2c0-5.2-4.8-8.7-9.7-8.7c-6.4,0-10.1,4.4-10.7,10.1    c-0.1,1.1-1.1,1.8-2.2,1.7l-7.1-0.8c-1.1-0.1-1.9-1.1-1.8-2.2c0.3-2.2,0.7-4.4,1.5-6.6C37,24.7,45.2,21,54.4,21    c11.4,0,21.7,6.8,21.7,19.2C76.1,45.9,73.7,50.7,69.3,54.3z" class="st1"/>
		<path d="M48.3,84v-6.6c0-1.7,1.3-3,3-3h6.2c1.7,0,3,1.3,3,3V84c0,1.7-1.3,3-3,3h-6.2C49.6,87,48.3,85.7,48.3,84z" class="st2"/>
	</g>
	<g>
		<path d="M69.2,54.2c-1.1,0.9-2.3,1.7-3.5,2.5c-5.1,3.5-6.1,4.9-6.1,11c0,0.2,0,0.4,0,0.6c0,1.1-0.9,2-2,2h-6.8    c-1.1,0-2-0.9-2-2v-0.3c0-3.9,0.3-10.4,2.6-13.6c3.8-5.4,11.9-6.3,11.9-14.2c0-5.2-4.8-8.7-9.7-8.7c-6.4,0-10.1,4.4-10.7,10.1    c-0.1,1.1-1.1,1.8-2.2,1.7l-7.1-0.8c-1.1-0.1-1.9-1.1-1.8-2.2c0.3-2.2,0.7-4.4,1.5-6.6c3.5-8.9,11.7-12.7,20.9-12.7    c11.4,0,21.7,6.8,21.7,19.2C76,45.8,73.6,50.6,69.2,54.2z" class="st1"/>
		<path d="M48.2,84v-6.6c0-1.7,1.3-3,3-3h6.2c1.7,0,3,1.3,3,3V84c0,1.7-1.3,3-3,3h-6.2C49.6,87,48.2,85.6,48.2,84z" class="st2"/>
	</g>
	<g>
		<path d="M69.1,54.1c-1.1,0.9-2.3,1.7-3.5,2.5c-5.1,3.5-6.1,4.9-6.1,11c0,0.2,0,0.4,0,0.6c0,1.1-0.9,2-2,2h-6.8    c-1.1,0-2-0.9-2-2v-0.3c0-3.9,0.3-10.4,2.6-13.6C55.1,48.8,63.2,48,63.2,40c0-5.2-4.8-8.7-9.7-8.7c-6.4,0-10.1,4.4-10.7,10.1    c-0.1,1.1-1.1,1.8-2.2,1.7l-7.1-0.8c-1.1-0.1-1.9-1.1-1.8-2.2c0.3-2.2,0.7-4.4,1.5-6.6c3.5-8.9,11.7-12.7,20.9-12.7    c11.4,0,21.7,6.8,21.7,19.2C75.9,45.7,73.5,50.5,69.1,54.1z" class="st1"/>
		<path d="M48.1,83.9v-6.6c0-1.7,1.3-3,3-3h6.2c1.7,0,3,1.3,3,3v6.6c0,1.7-1.3,3-3,3h-6.2    C49.5,86.9,48.1,85.5,48.1,83.9z" class="st2"/>
	</g>
	<g>
		<path d="M69,54c-1.1,0.9-2.3,1.7-3.5,2.5c-5.1,3.5-6.1,4.9-6.1,11c0,0.2,0,0.4,0,0.6c0,1.1-0.9,2-2,2h-6.8    c-1.1,0-2-0.9-2-2v-0.3c0-3.9,0.3-10.4,2.6-13.6c3.8-5.4,11.9-6.3,11.9-14.2c0-5.2-4.8-8.7-9.7-8.7c-6.4,0-10.1,4.4-10.7,10.1    c-0.1,1.1-1.1,1.8-2.2,1.7l-7.1-0.8c-1.1-0.1-1.9-1.1-1.8-2.2c0.3-2.2,0.7-4.4,1.5-6.6c3.5-8.9,11.7-12.7,20.9-12.7    c11.4,0,21.7,6.8,21.7,19.2C75.9,45.7,73.5,50.5,69,54z" class="st1"/>
		<path d="M48.1,83.8v-6.6c0-1.7,1.3-3,3-3h6.2c1.7,0,3,1.3,3,3v6.6c0,1.7-1.3,3-3,3h-6.2    C49.4,86.8,48.1,85.5,48.1,83.8z" class="st2"/>
	</g>
	<g>
		<path d="M69,54c-1.1,0.9-2.3,1.7-3.5,2.5c-5.1,3.5-6.1,4.9-6.1,11c0,0.2,0,0.4,0,0.6c0,1.1-0.9,2-2,2h-6.8    c-1.1,0-2-0.9-2-2v-0.3c0-3.9,0.3-10.4,2.6-13.6c3.8-5.4,11.9-6.3,11.9-14.2c0-5.2-4.8-8.7-9.7-8.7c-6.4,0-10.1,4.4-10.7,10.1    c-0.1,1.1-1.1,1.8-2.2,1.7l-7.1-0.8c-1.1-0.1-1.9-1.1-1.8-2.2c0.3-2.2,0.7-4.4,1.5-6.6c3.5-8.9,11.7-12.7,20.9-12.7    c11.4,0,21.7,6.8,21.7,19.2C75.8,45.6,73.4,50.4,69,54z" class="st1"/>
		<path d="M48,83.7v-6.6c0-1.7,1.3-3,3-3h6.2c1.7,0,3,1.3,3,3v6.6c0,1.7-1.3,3-3,3H51C49.3,86.7,48,85.4,48,83.7z" class="st2"/>
	</g>
	<g>
		<path d="M68.9,53.9c-1.1,0.9-2.3,1.7-3.5,2.5c-5.1,3.5-6.1,4.9-6.1,11c0,0.2,0,0.4,0,0.6c0,1.1-0.9,2-2,2h-6.8    c-1.1,0-2-0.9-2-2v-0.3c0-3.9,0.3-10.4,2.6-13.6C54.9,48.5,63,47.7,63,39.8c0-5.2-4.8-8.7-9.7-8.7c-6.4,0-10.1,4.4-10.7,10.1    c-0.1,1.1-1.1,1.8-2.2,1.7l-7.1-0.8c-1.1-0.1-1.9-1.1-1.8-2.2c0.3-2.2,0.7-4.4,1.5-6.6c3.5-8.9,11.7-12.7,20.9-12.7    c11.4,0,21.7,6.8,21.7,19.2C75.7,45.5,73.3,50.3,68.9,53.9z" class="st1"/>
		<path d="M47.9,83.7V77c0-1.7,1.3-3,3-3h6.2c1.7,0,3,1.3,3,3v6.6c0,1.7-1.3,3-3,3h-6.2C49.2,86.7,47.9,85.3,47.9,83.7z" class="st2"/>
	</g>
	<g>
		<path d="M68.8,53.8c-1.1,0.9-2.3,1.7-3.5,2.5c-5.1,3.5-6.1,4.9-6.1,11c0,0.2,0,0.4,0,0.6c0,1.1-0.9,2-2,2h-6.8    c-1.1,0-2-0.9-2-2v-0.3c0-3.9,0.3-10.4,2.6-13.6c3.8-5.4,11.9-6.3,11.9-14.2c0-5.2-4.8-8.7-9.7-8.7c-6.4,0-10.1,4.4-10.7,10.1    c-0.1,1.1-1.1,1.8-2.2,1.7L33.2,42c-1.1-0.1-1.9-1.1-1.8-2.2c0.3-2.2,0.7-4.4,1.5-6.6c3.5-8.9,11.7-12.7,20.9-12.7    c11.4,0,21.7,6.8,21.7,19.2C75.6,45.4,73.2,50.2,68.8,53.8z" class="st1"/>
		<path d="M47.8,83.6V77c0-1.7,1.3-3,3-3h6.2c1.7,0,3,1.3,3,3v6.6c0,1.7-1.3,3-3,3h-6.2C49.2,86.6,47.8,85.2,47.8,83.6z" class="st2"/>
	</g>
	<g>
		<path d="M68.7,53.7c-1.1,0.9-2.3,1.7-3.5,2.5c-5.1,3.5-6.1,4.9-6.1,11c0,0.2,0,0.4,0,0.6c0,1.1-0.9,2-2,2h-6.8    c-1.1,0-2-0.9-2-2v-0.3c0-3.9,0.3-10.4,2.6-13.6c3.8-5.4,11.9-6.3,11.9-14.2c0-5.2-4.8-8.7-9.7-8.7c-6.4,0-10.1,4.4-10.7,10.1    c-0.1,1.1-1.1,1.8-2.2,1.7l-7.1-0.8c-1.1-0.1-1.9-1.1-1.8-2.2c0.3-2.2,0.7-4.4,1.5-6.6c3.5-8.9,11.7-12.7,20.9-12.7    c11.4,0,21.7,6.8,21.7,19.2C75.5,45.4,73.1,50.1,68.7,53.7z" class="st1"/>
		<path d="M47.7,83.5v-6.6c0-1.7,1.3-3,3-3H57c1.7,0,3,1.3,3,3v6.6c0,1.7-1.3,3-3,3h-6.2C49.1,86.5,47.7,85.2,47.7,83.5    z" class="st2"/>
	</g>
	<g>
		<path d="M68.6,53.7c-1.1,0.9-2.3,1.7-3.5,2.5c-5.1,3.5-6.1,4.9-6.1,11c0,0.2,0,0.4,0,0.6c0,1.1-0.9,2-2,2h-6.8    c-1.1,0-2-0.9-2-2v-0.3c0-3.9,0.3-10.4,2.6-13.6c3.8-5.4,11.9-6.3,11.9-14.2c0-5.2-4.8-8.7-9.7-8.7c-6.4,0-10.1,4.4-10.7,10.1    c-0.1,1.1-1.1,1.8-2.2,1.7l-7.1-0.8c-1.1-0.1-1.9-1.1-1.8-2.2c0.3-2.2,0.7-4.4,1.5-6.6c3.5-8.9,11.7-12.7,20.9-12.7    c11.4,0,21.7,6.8,21.7,19.2C75.5,45.3,73.1,50.1,68.6,53.7z" class="st1"/>
		<path d="M47.7,83.4v-6.6c0-1.7,1.3-3,3-3h6.2c1.7,0,3,1.3,3,3v6.6c0,1.7-1.3,3-3,3h-6.2C49,86.4,47.7,85.1,47.7,83.4z" class="st2"/>
	</g>
	<g>
		<path d="M68.6,53.6c-1.1,0.9-2.3,1.7-3.5,2.5C60,59.6,59,60.9,59,67c0,0.2,0,0.4,0,0.6c0,1.1-0.9,2-2,2h-6.8    c-1.1,0-2-0.9-2-2v-0.3c0-3.9,0.3-10.4,2.6-13.6c3.8-5.4,11.9-6.3,11.9-14.2c0-5.2-4.8-8.7-9.7-8.7c-6.4,0-10.1,4.4-10.7,10.1    c-0.1,1.1-1.1,1.8-2.2,1.7L33,41.7c-1.1-0.1-1.9-1.1-1.8-2.2c0.3-2.2,0.7-4.4,1.5-6.6c3.5-8.9,11.7-12.7,20.9-12.7    c11.4,0,21.7,6.8,21.7,19.2C75.4,45.2,73,50,68.6,53.6z" class="st1"/>
		<path d="M47.6,83.3v-6.6c0-1.7,1.3-3,3-3h6.2c1.7,0,3,1.3,3,3v6.6c0,1.7-1.3,3-3,3h-6.2C48.9,86.3,47.6,85,47.6,83.3z" class="st2"/>
	</g>
	<g>
		<path d="M68.5,53.5c-1.1,0.9-2.3,1.7-3.5,2.5c-5.1,3.5-6.1,4.9-6.1,11c0,0.2,0,0.4,0,0.6c0,1.1-0.9,2-2,2h-6.8    c-1.1,0-2-0.9-2-2v-0.3c0-3.9,0.3-10.4,2.6-13.6c3.8-5.4,11.9-6.3,11.9-14.2c0-5.2-4.8-8.7-9.7-8.7c-6.4,0-10.1,4.4-10.7,10.1    c-0.1,1.1-1.1,1.8-2.2,1.7l-7.1-0.8c-1.1-0.1-1.9-1.1-1.8-2.2c0.3-2.2,0.7-4.4,1.5-6.6c3.5-8.9,11.7-12.7,20.9-12.7    c11.4,0,21.7,6.8,21.7,19.2C75.3,45.1,72.9,49.9,68.5,53.5z" class="st1"/>
		<path d="M47.5,83.3v-6.6c0-1.7,1.3-3,3-3h6.2c1.7,0,3,1.3,3,3v6.6c0,1.7-1.3,3-3,3h-6.2    C48.8,86.3,47.5,84.9,47.5,83.3z" class="st2"/>
	</g>
	<g>
		<path d="M68.4,53.4c-1.1,0.9-2.3,1.7-3.5,2.5c-5.1,3.5-6.1,4.9-6.1,11c0,0.2,0,0.4,0,0.6c0,1.1-0.9,2-2,2h-6.8    c-1.1,0-2-0.9-2-2v-0.3c0-3.9,0.3-10.4,2.6-13.6c3.8-5.4,11.9-6.3,11.9-14.2c0-5.2-4.8-8.7-9.7-8.7c-6.4,0-10.1,4.4-10.7,10.1    c-0.1,1.1-1.1,1.8-2.2,1.7l-7.1-0.8c-1.1-0.1-1.9-1.1-1.8-2.2c0.3-2.2,0.7-4.4,1.5-6.6c3.5-8.9,11.7-12.7,20.9-12.7    c11.4,0,21.7,6.8,21.7,19.2C75.2,45,72.8,49.8,68.4,53.4z" class="st1"/>
		<path d="M47.4,83.2v-6.6c0-1.7,1.3-3,3-3h6.2c1.7,0,3,1.3,3,3v6.6c0,1.7-1.3,3-3,3h-6.2    C48.8,86.2,47.4,84.8,47.4,83.2z" class="st2"/>
	</g>
	<g>
		<path d="M68.3,53.3c-1.1,0.9-2.3,1.7-3.5,2.5c-5.1,3.5-6.1,4.9-6.1,11c0,0.2,0,0.4,0,0.6c0,1.1-0.9,2-2,2H50    c-1.1,0-2-0.9-2-2v-0.3c0-3.9,0.3-10.4,2.6-13.6c3.8-5.4,11.9-6.3,11.9-14.2c0-5.2-4.8-8.7-9.7-8.7c-6.4,0-10.1,4.4-10.7,10.1    c-0.1,1.1-1.1,1.8-2.2,1.7l-7.1-0.8c-1.1-0.1-1.9-1.1-1.8-2.2c0.3-2.2,0.7-4.4,1.5-6.6C36,23.8,44.2,20,53.4,20    c11.4,0,21.7,6.8,21.7,19.2C75.1,45,72.8,49.7,68.3,53.3z" class="st1"/>
		<path d="M47.3,83.1v-6.6c0-1.7,1.3-3,3-3h6.2c1.7,0,3,1.3,3,3v6.6c0,1.7-1.3,3-3,3h-6.2    C48.7,86.1,47.3,84.8,47.3,83.1z" class="st2"/>
	</g>
	<g>
		<path d="M68.3,53.3c-1.1,0.9-2.3,1.7-3.5,2.5c-5.1,3.5-6.1,4.9-6.1,11c0,0.2,0,0.4,0,0.6c0,1.1-0.9,2-2,2h-6.8    c-1.1,0-2-0.9-2-2V67c0-3.9,0.3-10.4,2.6-13.6c3.8-5.4,11.9-6.3,11.9-14.2c0-5.2-4.8-8.7-9.7-8.7c-6.4,0-10.1,4.4-10.7,10.1    c-0.1,1.1-1.1,1.8-2.2,1.7l-7.1-0.8c-1.1-0.1-1.9-1.1-1.8-2.2c0.3-2.2,0.7-4.4,1.5-6.6c3.5-8.9,11.7-12.7,20.9-12.7    c11.4,0,21.7,6.8,21.7,19.2C75.1,44.9,72.7,49.7,68.3,53.3z" class="st1"/>
		<path d="M47.3,83v-6.6c0-1.7,1.3-3,3-3h6.2c1.7,0,3,1.3,3,3V83c0,1.7-1.3,3-3,3h-6.2C48.6,86,47.3,84.7,47.3,83z" class="st2"/>
	</g>
	<g>
		<path d="M68.2,53.2c-1.1,0.9-2.3,1.7-3.5,2.5c-5.1,3.5-6.1,4.9-6.1,11c0,0.2,0,0.4,0,0.6c0,1.1-0.9,2-2,2h-6.8    c-1.1,0-2-0.9-2-2v-0.3c0-3.9,0.3-10.4,2.6-13.6c3.8-5.4,11.9-6.3,11.9-14.2c0-5.2-4.8-8.7-9.7-8.7c-6.4,0-10.1,4.4-10.7,10.1    c-0.1,1.1-1.1,1.8-2.2,1.7l-7.1-0.8c-1.1-0.1-1.9-1.1-1.8-2.2c0.3-2.2,0.7-4.4,1.5-6.6c3.5-8.9,11.7-12.7,20.9-12.7    c11.4,0,21.7,6.8,21.7,19.2C75,44.8,72.6,49.6,68.2,53.2z" class="st1"/>
		<path d="M47.2,82.9v-6.6c0-1.7,1.3-3,3-3h6.2c1.7,0,3,1.3,3,3v6.6c0,1.7-1.3,3-3,3h-6.2    C48.5,85.9,47.2,84.6,47.2,82.9z" class="st2"/>
	</g>
	<g>
		<path d="M68.1,53.1c-1.1,0.9-2.3,1.7-3.5,2.5c-5.1,3.5-6.1,4.9-6.1,11c0,0.2,0,0.4,0,0.6c0,1.1-0.9,2-2,2h-6.8    c-1.1,0-2-0.9-2-2v-0.3c0-3.9,0.3-10.4,2.6-13.6c3.8-5.4,11.9-6.3,11.9-14.2c0-5.2-4.8-8.7-9.7-8.7c-6.4,0-10.1,4.4-10.7,10.1    c-0.1,1.1-1.1,1.8-2.2,1.7l-7.1-0.8c-1.1-0.1-1.9-1.1-1.8-2.2c0.3-2.2,0.7-4.4,1.5-6.6c3.5-8.9,11.7-12.7,20.9-12.7    c11.4,0,21.7,6.8,21.7,19.2C74.9,44.7,72.5,49.5,68.1,53.1z" class="st1"/>
		<path d="M47.1,82.9v-6.6c0-1.7,1.3-3,3-3h6.2c1.7,0,3,1.3,3,3v6.6c0,1.7-1.3,3-3,3h-6.2    C48.5,85.9,47.1,84.5,47.1,82.9z" class="st2"/>
	</g>
	<g>
		<path d="M68,53c-1.1,0.9-2.3,1.7-3.5,2.5c-5.1,3.5-6.1,4.9-6.1,11c0,0.2,0,0.4,0,0.6c0,1.1-0.9,2-2,2h-6.8    c-1.1,0-2-0.9-2-2v-0.3c0-3.9,0.3-10.4,2.6-13.6c3.8-5.4,11.9-6.3,11.9-14.2c0-5.2-4.8-8.7-9.7-8.7c-6.4,0-10.1,4.4-10.7,10.1    c-0.1,1.1-1.1,1.8-2.2,1.7l-7.1-0.8c-1.1-0.1-1.9-1.1-1.8-2.2c0.3-2.2,0.7-4.4,1.5-6.6c3.5-8.9,11.7-12.7,20.9-12.7    c11.4,0,21.7,6.8,21.7,19.2C74.8,44.6,72.4,49.4,68,53z" class="st1"/>
		<path d="M47,82.8v-6.6c0-1.7,1.3-3,3-3h6.2c1.7,0,3,1.3,3,3v6.6c0,1.7-1.3,3-3,3H50C48.4,85.8,47,84.4,47,82.8z" class="st2"/>
	</g>
	<g>
		<path d="M67.9,52.9c-1.1,0.9-2.3,1.7-3.5,2.5c-5.1,3.5-6.1,4.9-6.1,11c0,0.2,0,0.4,0,0.6c0,1.1-0.9,2-2,2h-6.8    c-1.1,0-2-0.9-2-2v-0.3c0-3.9,0.3-10.4,2.6-13.6c3.8-5.4,11.9-6.3,11.9-14.2c0-5.2-4.8-8.7-9.7-8.7c-6.4,0-10.1,4.4-10.7,10.1    c-0.1,1.1-1.1,1.8-2.2,1.7l-7.1-0.8c-1.1-0.1-1.9-1.1-1.8-2.2c0.3-2.2,0.7-4.4,1.5-6.6c3.5-8.9,11.7-12.7,20.9-12.7    c11.4,0,21.7,6.8,21.7,19.2C74.8,44.6,72.4,49.4,67.9,52.9z" class="st1"/>
		<path d="M47,82.7v-6.6c0-1.7,1.3-3,3-3h6.2c1.7,0,3,1.3,3,3v6.6c0,1.7-1.3,3-3,3H50C48.3,85.7,47,84.4,47,82.7z" class="st2"/>
	</g>
	<g>
		<path d="M67.9,52.9c-1.1,0.9-2.3,1.7-3.5,2.5c-5.1,3.5-6.1,4.9-6.1,11c0,0.2,0,0.4,0,0.6c0,1.1-0.9,2-2,2h-6.8    c-1.1,0-2-0.9-2-2v-0.3c0-3.9,0.3-10.4,2.6-13.6C53.9,47.5,62,46.7,62,38.8c0-5.2-4.8-8.7-9.7-8.7c-6.4,0-10.1,4.4-10.7,10.1    c-0.1,1.1-1.1,1.8-2.2,1.7L32.3,41c-1.1-0.1-1.9-1.1-1.8-2.2c0.3-2.2,0.7-4.4,1.5-6.6c3.5-8.9,11.7-12.7,20.9-12.7    c11.4,0,21.7,6.8,21.7,19.2C74.7,44.5,72.3,49.3,67.9,52.9z" class="st1"/>
		<path d="M46.9,82.6V76c0-1.7,1.3-3,3-3h6.2c1.7,0,3,1.3,3,3v6.6c0,1.7-1.3,3-3,3h-6.2C48.2,85.6,46.9,84.3,46.9,82.6z" class="st2"/>
	</g>
	<g>
		<path d="M67.8,52.8c-1.1,0.9-2.3,1.7-3.5,2.5c-5.1,3.5-6.1,4.9-6.1,11c0,0.2,0,0.4,0,0.6c0,1.1-0.9,2-2,2h-6.8    c-1.1,0-2-0.9-2-2v-0.3c0-3.9,0.3-10.4,2.6-13.6c3.8-5.4,11.9-6.3,11.9-14.2c0-5.2-4.8-8.7-9.7-8.7c-6.4,0-10.1,4.4-10.7,10.1    c-0.1,1.1-1.1,1.8-2.2,1.7L32.2,41c-1.1-0.1-1.9-1.1-1.8-2.2c0.3-2.2,0.7-4.4,1.5-6.6c3.5-8.9,11.7-12.7,20.9-12.7    c11.4,0,21.7,6.8,21.7,19.2C74.6,44.4,72.2,49.2,67.8,52.8z" class="st1"/>
		<path d="M46.8,82.6v-6.6c0-1.7,1.3-3,3-3H56c1.7,0,3,1.3,3,3v6.6c0,1.7-1.3,3-3,3h-6.2C48.1,85.6,46.8,84.2,46.8,82.6    z" class="st2"/>
	</g>
	<g>
		<path d="M67.7,52.7c-1.1,0.9-2.3,1.7-3.5,2.5c-5.1,3.5-6.1,4.9-6.1,11c0,0.2,0,0.4,0,0.6c0,1.1-0.9,2-2,2h-6.8    c-1.1,0-2-0.9-2-2v-0.3c0-3.9,0.3-10.4,2.6-13.6c3.8-5.4,11.9-6.3,11.9-14.2c0-5.2-4.8-8.7-9.7-8.7c-6.4,0-10.1,4.4-10.7,10.1    c-0.1,1.1-1.1,1.8-2.2,1.7l-7.1-0.8c-1.1-0.1-1.9-1.1-1.8-2.2c0.3-2.2,0.7-4.4,1.5-6.6c3.5-8.9,11.7-12.7,20.9-12.7    c11.4,0,21.7,6.8,21.7,19.2C74.5,44.3,72.1,49.1,67.7,52.7z" class="st1"/>
		<path d="M46.7,82.5v-6.6c0-1.7,1.3-3,3-3H56c1.7,0,3,1.3,3,3v6.6c0,1.7-1.3,3-3,3h-6.2C48.1,85.5,46.7,84.1,46.7,82.5    z" class="st2"/>
	</g>
	<g>
		<path d="M67.6,52.6c-1.1,0.9-2.3,1.7-3.5,2.5c-5.1,3.5-6.1,4.9-6.1,11c0,0.2,0,0.4,0,0.6c0,1.1-0.9,2-2,2h-6.8    c-1.1,0-2-0.9-2-2v-0.3c0-3.9,0.3-10.4,2.6-13.6c3.8-5.4,11.9-6.3,11.9-14.2c0-5.2-4.8-8.7-9.7-8.7c-6.4,0-10.1,4.4-10.7,10.1    c-0.1,1.1-1.1,1.8-2.2,1.7L32,40.8c-1.1-0.1-1.9-1.1-1.8-2.2c0.3-2.2,0.7-4.4,1.5-6.6c3.5-8.9,11.7-12.7,20.9-12.7    c11.4,0,21.7,6.8,21.7,19.2C74.4,44.3,72,49,67.6,52.6z" class="st1"/>
		<path d="M46.6,82.4v-6.6c0-1.7,1.3-3,3-3h6.2c1.7,0,3,1.3,3,3v6.6c0,1.7-1.3,3-3,3h-6.2C48,85.4,46.6,84.1,46.6,82.4z" class="st2"/>
	</g>
	<g>
		<path d="M67.5,52.6c-1.1,0.9-2.3,1.7-3.5,2.5C59,58.5,58,59.9,58,66c0,0.2,0,0.4,0,0.6c0,1.1-0.9,2-2,2h-6.8    c-1.1,0-2-0.9-2-2v-0.3c0-3.9,0.3-10.4,2.6-13.6c3.8-5.4,11.9-6.3,11.9-14.2c0-5.2-4.8-8.7-9.7-8.7c-6.4,0-10.1,4.4-10.7,10.1    c-0.1,1.1-1.1,1.8-2.2,1.7L32,40.7c-1.1-0.1-1.9-1.1-1.8-2.2c0.3-2.2,0.7-4.4,1.5-6.6c3.5-8.9,11.7-12.7,20.9-12.7    c11.4,0,21.7,6.8,21.7,19.2C74.4,44.2,72,49,67.5,52.6z" class="st1"/>
		<path d="M46.6,82.3v-6.6c0-1.7,1.3-3,3-3h6.2c1.7,0,3,1.3,3,3v6.6c0,1.7-1.3,3-3,3h-6.2C47.9,85.3,46.6,84,46.6,82.3z" class="st2"/>
	</g>
	<g>
		<path d="M67.5,52.5c-1.1,0.9-2.3,1.7-3.5,2.5c-5.1,3.5-6.1,4.9-6.1,11c0,0.2,0,0.4,0,0.6c0,1.1-0.9,2-2,2h-6.8    c-1.1,0-2-0.9-2-2v-0.3c0-3.9,0.3-10.4,2.6-13.6c3.8-5.4,11.9-6.3,11.9-14.2c0-5.2-4.8-8.7-9.7-8.7c-6.4,0-10.1,4.4-10.7,10.1    c-0.1,1.1-1.1,1.8-2.2,1.7l-7.1-0.8c-1.1-0.1-1.9-1.1-1.8-2.2c0.3-2.2,0.7-4.4,1.5-6.6c3.5-8.9,11.7-12.7,20.9-12.7    c11.4,0,21.7,6.8,21.7,19.2C74.3,44.1,71.9,48.9,67.5,52.5z" class="st1"/>
		<path d="M46.5,82.2v-6.6c0-1.7,1.3-3,3-3h6.2c1.7,0,3,1.3,3,3v6.6c0,1.7-1.3,3-3,3h-6.2    C47.8,85.2,46.5,83.9,46.5,82.2z" class="st2"/>
	</g>
	<g>
		<path d="M67.4,52.4c-1.1,0.9-2.3,1.7-3.5,2.5c-5.1,3.5-6.1,4.9-6.1,11c0,0.2,0,0.4,0,0.6c0,1.1-0.9,2-2,2h-6.8    c-1.1,0-2-0.9-2-2v-0.3c0-3.9,0.3-10.4,2.6-13.6c3.8-5.4,11.9-6.3,11.9-14.2c0-5.2-4.8-8.7-9.7-8.7c-6.4,0-10.1,4.4-10.7,10.1    c-0.1,1.1-1.1,1.8-2.2,1.7l-7.1-0.8c-1.1-0.1-1.9-1.1-1.8-2.2c0.3-2.2,0.7-4.4,1.5-6.6c3.5-8.9,11.7-12.7,20.9-12.7    c11.4,0,21.7,6.8,21.7,19.2C74.2,44,71.8,48.8,67.4,52.4z" class="st1"/>
		<path d="M46.4,82.2v-6.6c0-1.7,1.3-3,3-3h6.2c1.7,0,3,1.3,3,3v6.6c0,1.7-1.3,3-3,3h-6.2    C47.7,85.2,46.4,83.8,46.4,82.2z" class="st2"/>
	</g>
	<g>
		<path d="M67.3,52.3c-1.1,0.9-2.3,1.7-3.5,2.5c-5.1,3.5-6.1,4.9-6.1,11c0,0.2,0,0.4,0,0.6c0,1.1-0.9,2-2,2H49    c-1.1,0-2-0.9-2-2V66c0-3.9,0.3-10.4,2.6-13.6c3.8-5.4,11.9-6.3,11.9-14.2c0-5.2-4.8-8.7-9.7-8.7c-6.4,0-10.1,4.4-10.7,10.1    c-0.1,1.1-1.1,1.8-2.2,1.7l-7.1-0.8c-1.1-0.1-1.9-1.1-1.8-2.2c0.3-2.2,0.7-4.4,1.5-6.6C35,22.8,43.2,19,52.4,19    c11.4,0,21.7,6.8,21.7,19.2C74.1,43.9,71.7,48.7,67.3,52.3z" class="st1"/>
		<path d="M46.3,82.1v-6.6c0-1.7,1.3-3,3-3h6.2c1.7,0,3,1.3,3,3v6.6c0,1.7-1.3,3-3,3h-6.2    C47.7,85.1,46.3,83.7,46.3,82.1z" class="st2"/>
	</g>
	<g>
		<path d="M67.2,52.2c-1.1,0.9-2.3,1.7-3.5,2.5c-5.1,3.5-6.1,4.9-6.1,11c0,0.2,0,0.4,0,0.6c0,1.1-0.9,2-2,2h-6.8    c-1.1,0-2-0.9-2-2V66c0-3.9,0.3-10.4,2.6-13.6c3.8-5.4,11.9-6.3,11.9-14.2c0-5.2-4.8-8.7-9.7-8.7c-6.4,0-10.1,4.4-10.7,10.1    c-0.1,1.1-1.1,1.8-2.2,1.7l-7.1-0.8c-1.1-0.1-1.9-1.1-1.8-2.2c0.3-2.2,0.7-4.4,1.5-6.6c3.5-8.9,11.7-12.7,20.9-12.7    c11.4,0,21.7,6.8,21.7,19.2C74,43.9,71.7,48.6,67.2,52.2z" class="st1"/>
		<path d="M46.2,82v-6.6c0-1.7,1.3-3,3-3h6.2c1.7,0,3,1.3,3,3V82c0,1.7-1.3,3-3,3h-6.2C47.6,85,46.2,83.7,46.2,82z" class="st2"/>
	</g>
	<g>
		<path d="M67.2,52.2c-1.1,0.9-2.3,1.7-3.5,2.5c-5.1,3.5-6.1,4.9-6.1,11c0,0.2,0,0.4,0,0.6c0,1.1-0.9,2-2,2h-6.8    c-1.1,0-2-0.9-2-2v-0.3c0-3.9,0.3-10.4,2.6-13.6c3.8-5.4,11.9-6.3,11.9-14.2c0-5.2-4.8-8.7-9.7-8.7c-6.4,0-10.1,4.4-10.7,10.1    c-0.1,1.1-1.1,1.8-2.2,1.7l-7.1-0.8c-1.1-0.1-1.9-1.1-1.8-2.2c0.3-2.2,0.7-4.4,1.5-6.6c3.5-8.9,11.7-12.7,20.9-12.7    c11.4,0,21.7,6.8,21.7,19.2C74,43.8,71.6,48.6,67.2,52.2z" class="st1"/>
		<path d="M46.2,81.9v-6.6c0-1.7,1.3-3,3-3h6.2c1.7,0,3,1.3,3,3v6.6c0,1.7-1.3,3-3,3h-6.2    C47.5,84.9,46.2,83.6,46.2,81.9z" class="st2"/>
	</g>
	<g>
		<path d="M67.1,52.1c-1.1,0.9-2.3,1.7-3.5,2.5c-5.1,3.5-6.1,4.9-6.1,11c0,0.2,0,0.4,0,0.6c0,1.1-0.9,2-2,2h-6.8    c-1.1,0-2-0.9-2-2v-0.3c0-3.9,0.3-10.4,2.6-13.6c3.8-5.4,11.9-6.3,11.9-14.2c0-5.2-4.8-8.7-9.7-8.7c-6.4,0-10.1,4.4-10.7,10.1    c-0.1,1.1-1.1,1.8-2.2,1.7l-7.1-0.8c-1.1-0.1-1.9-1.1-1.8-2.2c0.3-2.2,0.7-4.4,1.5-6.6c3.5-8.9,11.7-12.7,20.9-12.7    c11.4,0,21.7,6.8,21.7,19.2C73.9,43.7,71.5,48.5,67.1,52.1z" class="st1"/>
		<path d="M46.1,81.8v-6.6c0-1.7,1.3-3,3-3h6.2c1.7,0,3,1.3,3,3v6.6c0,1.7-1.3,3-3,3h-6.2    C47.4,84.8,46.1,83.5,46.1,81.8z" class="st2"/>
	</g>
	<g>
		<path d="M67,52c-1.1,0.9-2.3,1.7-3.5,2.5c-5.1,3.5-6.1,4.9-6.1,11c0,0.2,0,0.4,0,0.6c0,1.1-0.9,2-2,2h-6.8    c-1.1,0-2-0.9-2-2v-0.3c0-3.9,0.3-10.4,2.6-13.6c3.8-5.4,11.9-6.3,11.9-14.2c0-5.2-4.8-8.7-9.7-8.7c-6.4,0-10.1,4.4-10.7,10.1    c-0.1,1.1-1.1,1.8-2.2,1.7l-7.1-0.8c-1.1-0.1-1.9-1.1-1.8-2.2c0.3-2.2,0.7-4.4,1.5-6.6c3.5-8.9,11.7-12.7,20.9-12.7    c11.4,0,21.7,6.8,21.7,19.2C73.8,43.6,71.4,48.4,67,52z" class="st1"/>
		<path d="M46,81.8v-6.6c0-1.7,1.3-3,3-3h6.2c1.7,0,3,1.3,3,3v6.6c0,1.7-1.3,3-3,3H49C47.4,84.8,46,83.4,46,81.8z" class="st2"/>
	</g>
	<g>
		<path d="M66.9,51.9c-1.1,0.9-2.3,1.7-3.5,2.5c-5.1,3.5-6.1,4.9-6.1,11c0,0.2,0,0.4,0,0.6c0,1.1-0.9,2-2,2h-6.8    c-1.1,0-2-0.9-2-2v-0.3c0-3.9,0.3-10.4,2.6-13.6C52.9,46.6,61,45.8,61,37.8c0-5.2-4.8-8.7-9.7-8.7c-6.4,0-10.1,4.4-10.7,10.1    c-0.1,1.1-1.1,1.8-2.2,1.7l-7.1-0.8c-1.1-0.1-1.9-1.1-1.8-2.2c0.3-2.2,0.7-4.4,1.5-6.6c3.5-8.9,11.7-12.7,20.9-12.7    c11.4,0,21.7,6.8,21.7,19.2C73.7,43.5,71.3,48.3,66.9,51.9z" class="st1"/>
		<path d="M45.9,81.7v-6.6c0-1.7,1.3-3,3-3h6.2c1.7,0,3,1.3,3,3v6.6c0,1.7-1.3,3-3,3h-6.2    C47.3,84.7,45.9,83.3,45.9,81.7z" class="st2"/>
	</g>
	<g>
		<path d="M66.8,51.8c-1.1,0.9-2.3,1.7-3.5,2.5c-5.1,3.5-6.1,4.9-6.1,11c0,0.2,0,0.4,0,0.6c0,1.1-0.9,2-2,2h-6.8    c-1.1,0-2-0.9-2-2v-0.3c0-3.9,0.3-10.4,2.6-13.6C52.9,46.5,61,45.7,61,37.8c0-5.2-4.8-8.7-9.7-8.7c-6.4,0-10.1,4.4-10.7,10.1    c-0.1,1.1-1.1,1.8-2.2,1.7L31.3,40c-1.1-0.1-1.9-1.1-1.8-2.2c0.3-2.2,0.7-4.4,1.5-6.6c3.5-8.9,11.7-12.7,20.9-12.7    c11.4,0,21.7,6.8,21.7,19.2C73.7,43.5,71.3,48.3,66.8,51.8z" class="st1"/>
		<path d="M45.9,81.6V75c0-1.7,1.3-3,3-3h6.2c1.7,0,3,1.3,3,3v6.6c0,1.7-1.3,3-3,3h-6.2C47.2,84.6,45.9,83.3,45.9,81.6z" class="st2"/>
	</g>
	<g>
		<path d="M66.8,51.8c-1.1,0.9-2.3,1.7-3.5,2.5c-5.1,3.5-6.1,4.9-6.1,11c0,0.2,0,0.4,0,0.6c0,1.1-0.9,2-2,2h-6.8    c-1.1,0-2-0.9-2-2v-0.3c0-3.9,0.3-10.4,2.6-13.6c3.8-5.4,11.9-6.3,11.9-14.2c0-5.2-4.8-8.7-9.7-8.7c-6.4,0-10.1,4.4-10.7,10.1    c-0.1,1.1-1.1,1.8-2.2,1.7l-7.1-0.8c-1.1-0.1-1.9-1.1-1.8-2.2c0.3-2.2,0.7-4.4,1.5-6.6c3.5-8.9,11.7-12.7,20.9-12.7    c11.4,0,21.7,6.8,21.7,19.2C73.6,43.4,71.2,48.2,66.8,51.8z" class="st1"/>
		<path d="M45.8,81.5v-6.6c0-1.7,1.3-3,3-3H55c1.7,0,3,1.3,3,3v6.6c0,1.7-1.3,3-3,3h-6.2C47.1,84.5,45.8,83.2,45.8,81.5    z" class="st2"/>
	</g>
	<g>
		<path d="M66.7,51.7c-1.1,0.9-2.3,1.7-3.5,2.5c-5.1,3.5-6.1,4.9-6.1,11c0,0.2,0,0.4,0,0.6c0,1.1-0.9,2-2,2h-6.8    c-1.1,0-2-0.9-2-2v-0.3c0-3.9,0.3-10.4,2.6-13.6c3.8-5.4,11.9-6.3,11.9-14.2c0-5.2-4.8-8.7-9.7-8.7c-6.4,0-10.1,4.4-10.7,10.1    c-0.1,1.1-1.1,1.8-2.2,1.7l-7.1-0.8c-1.1-0.1-1.9-1.1-1.8-2.2c0.3-2.2,0.7-4.4,1.5-6.6c3.5-8.9,11.7-12.7,20.9-12.7    c11.4,0,21.7,6.8,21.7,19.2C73.5,43.3,71.1,48.1,66.7,51.7z" class="st1"/>
		<path d="M45.7,81.5v-6.6c0-1.7,1.3-3,3-3h6.2c1.7,0,3,1.3,3,3v6.6c0,1.7-1.3,3-3,3h-6.2C47,84.5,45.7,83.1,45.7,81.5z" class="st2"/>
	</g>
	<g>
		<path d="M66.6,51.6c-1.1,0.9-2.3,1.7-3.5,2.5C58,57.6,57,59,57,65c0,0.2,0,0.4,0,0.6c0,1.1-0.9,2-2,2h-6.8    c-1.1,0-2-0.9-2-2v-0.3c0-3.9,0.3-10.4,2.6-13.6c3.8-5.4,11.9-6.3,11.9-14.2c0-5.2-4.8-8.7-9.7-8.7c-6.4,0-10.1,4.4-10.7,10.1    c-0.1,1.1-1.1,1.8-2.2,1.7L31,39.8c-1.1-0.1-1.9-1.1-1.8-2.2c0.3-2.2,0.7-4.4,1.5-6.6c3.5-8.9,11.7-12.7,20.9-12.7    c11.4,0,21.7,6.8,21.7,19.2C73.4,43.2,71,48,66.6,51.6z" class="st1"/>
		<path d="M45.6,81.4v-6.6c0-1.7,1.3-3,3-3h6.2c1.7,0,3,1.3,3,3v6.6c0,1.7-1.3,3-3,3h-6.2C47,84.4,45.6,83,45.6,81.4z" class="st2"/>
	</g>
	<g>
		<path d="M66.5,51.5c-1.1,0.9-2.3,1.7-3.5,2.5C58,57.5,57,58.9,57,65c0,0.2,0,0.4,0,0.6c0,1.1-0.9,2-2,2h-6.8    c-1.1,0-2-0.9-2-2v-0.3c0-3.9,0.3-10.4,2.6-13.6c3.8-5.4,11.9-6.3,11.9-14.2c0-5.2-4.8-8.7-9.7-8.7c-6.4,0-10.1,4.4-10.7,10.1    c-0.1,1.1-1.1,1.8-2.2,1.7l-7.1-0.8c-1.1-0.1-1.9-1.1-1.8-2.2c0.3-2.2,0.7-4.4,1.5-6.6c3.5-8.9,11.7-12.7,20.9-12.7    c11.4,0,21.7,6.8,21.7,19.2C73.3,43.2,70.9,47.9,66.5,51.5z" class="st1"/>
		<path d="M45.5,81.3v-6.6c0-1.7,1.3-3,3-3h6.2c1.7,0,3,1.3,3,3v6.6c0,1.7-1.3,3-3,3h-6.2C46.9,84.3,45.5,83,45.5,81.3z" class="st2"/>
	</g>
	<g>
		<path d="M66.5,51.5c-1.1,0.9-2.3,1.7-3.5,2.5c-5.1,3.5-6.1,4.9-6.1,11c0,0.2,0,0.4,0,0.6c0,1.1-0.9,2-2,2h-6.8    c-1.1,0-2-0.9-2-2v-0.3c0-3.9,0.3-10.4,2.6-13.6c3.8-5.4,11.9-6.3,11.9-14.2c0-5.2-4.8-8.7-9.7-8.7c-6.4,0-10.1,4.4-10.7,10.1    c-0.1,1.1-1.1,1.8-2.2,1.7l-7.1-0.8c-1.1-0.1-1.9-1.1-1.8-2.2c0.3-2.2,0.7-4.4,1.5-6.6c3.5-8.9,11.7-12.7,20.9-12.7    c11.4,0,21.7,6.8,21.7,19.2C73.3,43.1,70.9,47.9,66.5,51.5z" class="st1"/>
		<path d="M45.5,81.2v-6.6c0-1.7,1.3-3,3-3h6.2c1.7,0,3,1.3,3,3v6.6c0,1.7-1.3,3-3,3h-6.2    C46.8,84.2,45.5,82.9,45.5,81.2z" class="st2"/>
	</g>
	<g>
		<path d="M66.4,51.4c-1.1,0.9-2.3,1.7-3.5,2.5c-5.1,3.5-6.1,4.9-6.1,11c0,0.2,0,0.4,0,0.6c0,1.1-0.9,2-2,2H48    c-1.1,0-2-0.9-2-2v-0.3c0-3.9,0.3-10.4,2.6-13.6c3.8-5.4,11.9-6.3,11.9-14.2c0-5.2-4.8-8.7-9.7-8.7c-6.4,0-10.1,4.4-10.7,10.1    c-0.1,1.1-1.1,1.8-2.2,1.7l-7.1-0.8c-1.1-0.1-1.9-1.1-1.8-2.2c0.3-2.2,0.7-4.4,1.5-6.6c3.5-8.9,11.7-12.7,20.9-12.7    c11.4,0,21.7,6.8,21.7,19.2C73.2,43,70.8,47.8,66.4,51.4z" class="st1"/>
		<path d="M45.4,81.1v-6.6c0-1.7,1.3-3,3-3h6.2c1.7,0,3,1.3,3,3v6.6c0,1.7-1.3,3-3,3h-6.2    C46.7,84.1,45.4,82.8,45.4,81.1z" class="st2"/>
	</g>
	<g>
		<path d="M66.3,51.3c-1.1,0.9-2.3,1.7-3.5,2.5c-5.1,3.5-6.1,4.9-6.1,11c0,0.2,0,0.4,0,0.6c0,1.1-0.9,2-2,2H48    c-1.1,0-2-0.9-2-2V65c0-3.9,0.3-10.4,2.6-13.6c3.8-5.4,11.9-6.3,11.9-14.2c0-5.2-4.8-8.7-9.7-8.7c-6.4,0-10.1,4.4-10.7,10.1    c-0.1,1.1-1.1,1.8-2.2,1.7l-7.1-0.8c-1.1-0.1-1.9-1.1-1.8-2.2c0.3-2.2,0.7-4.4,1.5-6.6C34,21.8,42.2,18,51.4,18    c11.4,0,21.7,6.8,21.7,19.2C73.1,42.9,70.7,47.7,66.3,51.3z" class="st1"/>
		<path d="M45.3,81.1v-6.6c0-1.7,1.3-3,3-3h6.2c1.7,0,3,1.3,3,3v6.6c0,1.7-1.3,3-3,3h-6.2    C46.7,84.1,45.3,82.7,45.3,81.1z" class="st2"/>
	</g>
	<g>
		<path d="M66.2,51.2c-1.1,0.9-2.3,1.7-3.5,2.5c-5.1,3.5-6.1,4.9-6.1,11c0,0.2,0,0.4,0,0.6c0,1.1-0.9,2-2,2h-6.8    c-1.1,0-2-0.9-2-2v-0.3c0-3.9,0.3-10.4,2.6-13.6c3.8-5.4,11.9-6.3,11.9-14.2c0-5.2-4.8-8.7-9.7-8.7c-6.4,0-10.1,4.4-10.7,10.1    c-0.1,1.1-1.1,1.8-2.2,1.7l-7.1-0.8c-1.1-0.1-1.9-1.1-1.8-2.2c0.3-2.2,0.7-4.4,1.5-6.6c3.5-8.9,11.7-12.7,20.9-12.7    c11.4,0,21.7,6.8,21.7,19.2C73,42.8,70.6,47.6,66.2,51.2z" class="st1"/>
		<path d="M45.2,81v-6.6c0-1.7,1.3-3,3-3h6.2c1.7,0,3,1.3,3,3V81c0,1.7-1.3,3-3,3h-6.2C46.6,84,45.2,82.6,45.2,81z" class="st2"/>
	</g>
	<g>
		<path d="M66.1,51.1c-1.1,0.9-2.3,1.7-3.5,2.5c-5.1,3.5-6.1,4.9-6.1,11c0,0.2,0,0.4,0,0.6c0,1.1-0.9,2-2,2h-6.8    c-1.1,0-2-0.9-2-2v-0.3c0-3.9,0.3-10.4,2.6-13.6c3.8-5.4,11.9-6.3,11.9-14.2c0-5.2-4.8-8.7-9.7-8.7c-6.4,0-10.1,4.4-10.7,10.1    c-0.1,1.1-1.1,1.8-2.2,1.7l-7.1-0.8c-1.1-0.1-1.9-1.1-1.8-2.2c0.3-2.2,0.7-4.4,1.5-6.6c3.5-8.9,11.7-12.7,20.9-12.7    c11.4,0,21.7,6.8,21.7,19.2C72.9,42.8,70.6,47.5,66.1,51.1z" class="st1"/>
		<path d="M45.2,80.9v-6.6c0-1.7,1.3-3,3-3h6.2c1.7,0,3,1.3,3,3v6.6c0,1.7-1.3,3-3,3h-6.2    C46.5,83.9,45.2,82.6,45.2,80.9z" class="st2"/>
	</g>
	<g>
		<path d="M66.1,51.1c-1.1,0.9-2.3,1.7-3.5,2.5c-5.1,3.5-6.1,4.9-6.1,11c0,0.2,0,0.4,0,0.6c0,1.1-0.9,2-2,2h-6.8    c-1.1,0-2-0.9-2-2v-0.3c0-3.9,0.3-10.4,2.6-13.6c3.8-5.4,11.9-6.3,11.9-14.2c0-5.2-4.8-8.7-9.7-8.7c-6.4,0-10.1,4.4-10.7,10.1    c-0.1,1.1-1.1,1.8-2.2,1.7l-7.1-0.8c-1.1-0.1-1.9-1.1-1.8-2.2c0.3-2.2,0.7-4.4,1.5-6.6c3.5-8.9,11.7-12.7,20.9-12.7    c11.4,0,21.7,6.8,21.7,19.2C72.9,42.7,70.5,47.5,66.1,51.1z" class="st1"/>
		<path d="M45.1,80.8v-6.6c0-1.7,1.3-3,3-3h6.2c1.7,0,3,1.3,3,3v6.6c0,1.7-1.3,3-3,3h-6.2    C46.4,83.8,45.1,82.5,45.1,80.8z" class="st2"/>
	</g>
	<g>
		<path d="M66,51c-1.1,0.9-2.3,1.7-3.5,2.5c-5.1,3.5-6.1,4.9-6.1,11c0,0.2,0,0.4,0,0.6c0,1.1-0.9,2-2,2h-6.8    c-1.1,0-2-0.9-2-2v-0.3c0-3.9,0.3-10.4,2.6-13.6c3.8-5.4,11.9-6.3,11.9-14.2c0-5.2-4.8-8.7-9.7-8.7c-6.4,0-10.1,4.4-10.7,10.1    c-0.1,1.1-1.1,1.8-2.2,1.7l-7.1-0.8c-1.1-0.1-1.9-1.1-1.8-2.2c0.3-2.2,0.7-4.4,1.5-6.6c3.5-8.9,11.7-12.7,20.9-12.7    c11.4,0,21.7,6.8,21.7,19.2C72.8,42.6,70.4,47.4,66,51z" class="st1"/>
		<path d="M45,80.7v-6.6c0-1.7,1.3-3,3-3h6.2c1.7,0,3,1.3,3,3v6.6c0,1.7-1.3,3-3,3H48C46.3,83.7,45,82.4,45,80.7z" class="st2"/>
	</g>
	<g>
		<path d="M65.9,50.9c-1.1,0.9-2.3,1.7-3.5,2.5c-5.1,3.5-6.1,4.9-6.1,11c0,0.2,0,0.4,0,0.6c0,1.1-0.9,2-2,2h-6.8    c-1.1,0-2-0.9-2-2v-0.3c0-3.9,0.3-10.4,2.6-13.6C51.9,45.6,60,44.7,60,36.8c0-5.2-4.8-8.7-9.7-8.7c-6.4,0-10.1,4.4-10.7,10.1    c-0.1,1.1-1.1,1.8-2.2,1.7l-7.1-0.8c-1.1-0.1-1.9-1.1-1.8-2.2c0.3-2.2,0.7-4.4,1.5-6.6c3.5-8.9,11.7-12.7,20.9-12.7    c11.4,0,21.7,6.8,21.7,19.2C72.7,42.5,70.3,47.3,65.9,50.9z" class="st1"/>
		<path d="M44.9,80.7v-6.6c0-1.7,1.3-3,3-3h6.2c1.7,0,3,1.3,3,3v6.6c0,1.7-1.3,3-3,3h-6.2    C46.3,83.7,44.9,82.3,44.9,80.7z" class="st2"/>
	</g>
	<g>
		<path d="M65.8,50.8c-1.1,0.9-2.3,1.7-3.5,2.5c-5.1,3.5-6.1,4.9-6.1,11c0,0.2,0,0.4,0,0.6c0,1.1-0.9,2-2,2h-6.8    c-1.1,0-2-0.9-2-2v-0.3c0-3.9,0.3-10.4,2.6-13.6c3.8-5.4,11.9-6.3,11.9-14.2c0-5.2-4.8-8.7-9.7-8.7c-6.4,0-10.1,4.4-10.7,10.1    c-0.1,1.1-1.1,1.8-2.2,1.7L30.2,39c-1.1-0.1-1.9-1.1-1.8-2.2c0.3-2.2,0.7-4.4,1.5-6.6c3.5-8.9,11.7-12.7,20.9-12.7    c11.4,0,21.7,6.8,21.7,19.2C72.6,42.4,70.2,47.2,65.8,50.8z" class="st1"/>
		<path d="M44.8,80.6V74c0-1.7,1.3-3,3-3h6.2c1.7,0,3,1.3,3,3v6.6c0,1.7-1.3,3-3,3h-6.2C46.2,83.6,44.8,82.2,44.8,80.6z" class="st2"/>
	</g>
	<g>
		<path d="M65.7,50.7c-1.1,0.9-2.3,1.7-3.5,2.5c-5.1,3.5-6.1,4.9-6.1,11c0,0.2,0,0.4,0,0.6c0,1.1-0.9,2-2,2h-6.8    c-1.1,0-2-0.9-2-2v-0.3c0-3.9,0.3-10.4,2.6-13.6c3.8-5.4,11.9-6.3,11.9-14.2c0-5.2-4.8-8.7-9.7-8.7c-6.4,0-10.1,4.4-10.7,10.1    c-0.1,1.1-1.1,1.8-2.2,1.7l-7.1-0.8c-1.1-0.1-1.9-1.1-1.8-2.2c0.3-2.2,0.7-4.4,1.5-6.6c3.5-8.9,11.7-12.7,20.9-12.7    c11.4,0,21.7,6.8,21.7,19.2C72.6,42.4,70.2,47.2,65.7,50.7z" class="st1"/>
		<path d="M44.8,80.5v-6.6c0-1.7,1.3-3,3-3H54c1.7,0,3,1.3,3,3v6.6c0,1.7-1.3,3-3,3h-6.2C46.1,83.5,44.8,82.2,44.8,80.5    z" class="st2"/>
	</g>
	<g>
		<path d="M65.7,50.7c-1.1,0.9-2.3,1.7-3.5,2.5c-5.1,3.5-6.1,4.9-6.1,11c0,0.2,0,0.4,0,0.6c0,1.1-0.9,2-2,2h-6.8    c-1.1,0-2-0.9-2-2v-0.3c0-3.9,0.3-10.4,2.6-13.6c3.8-5.4,11.9-6.3,11.9-14.2c0-5.2-4.8-8.7-9.7-8.7c-6.4,0-10.1,4.4-10.7,10.1    c-0.1,1.1-1.1,1.8-2.2,1.7l-7.1-0.8c-1.1-0.1-1.9-1.1-1.8-2.2c0.3-2.2,0.7-4.4,1.5-6.6c3.5-8.9,11.7-12.7,20.9-12.7    c11.4,0,21.7,6.8,21.7,19.2C72.5,42.3,70.1,47.1,65.7,50.7z" class="st1"/>
		<path d="M44.7,80.4v-6.6c0-1.7,1.3-3,3-3h6.2c1.7,0,3,1.3,3,3v6.6c0,1.7-1.3,3-3,3h-6.2C46,83.4,44.7,82.1,44.7,80.4z" class="st2"/>
	</g>
	<g>
		<path d="M65.6,50.6c-1.1,0.9-2.3,1.7-3.5,2.5C57,56.6,56,58,56,64c0,0.2,0,0.4,0,0.6c0,1.1-0.9,2-2,2h-6.8    c-1.1,0-2-0.9-2-2v-0.3c0-3.9,0.3-10.4,2.6-13.6c3.8-5.4,11.9-6.3,11.9-14.2c0-5.2-4.8-8.7-9.7-8.7c-6.4,0-10.1,4.4-10.7,10.1    c-0.1,1.1-1.1,1.8-2.2,1.7L30,38.8c-1.1-0.1-1.9-1.1-1.8-2.2c0.3-2.2,0.7-4.4,1.5-6.6c3.5-8.9,11.7-12.7,20.9-12.7    c11.4,0,21.7,6.8,21.7,19.2C72.4,42.2,70,47,65.6,50.6z" class="st1"/>
		<path d="M44.6,80.4v-6.6c0-1.7,1.3-3,3-3h6.2c1.7,0,3,1.3,3,3v6.6c0,1.7-1.3,3-3,3h-6.2C45.9,83.4,44.6,82,44.6,80.4z" class="st2"/>
	</g>
	<g>
		<path d="M65.5,50.5c-1.1,0.9-2.3,1.7-3.5,2.5c-5.1,3.5-6.1,4.9-6.1,11c0,0.2,0,0.4,0,0.6c0,1.1-0.9,2-2,2h-6.8    c-1.1,0-2-0.9-2-2v-0.3c0-3.9,0.3-10.4,2.6-13.6c3.8-5.4,11.9-6.3,11.9-14.2c0-5.2-4.8-8.7-9.7-8.7c-6.4,0-10.1,4.4-10.7,10.1    c-0.1,1.1-1.1,1.8-2.2,1.7l-7.1-0.8c-1.1-0.1-1.9-1.1-1.8-2.2c0.3-2.2,0.7-4.4,1.5-6.6c3.5-8.9,11.7-12.7,20.9-12.7    c11.4,0,21.7,6.8,21.7,19.2C72.3,42.1,69.9,46.9,65.5,50.5z" class="st1"/>
		<path d="M44.5,80.3v-6.6c0-1.7,1.3-3,3-3h6.2c1.7,0,3,1.3,3,3v6.6c0,1.7-1.3,3-3,3h-6.2    C45.9,83.3,44.5,81.9,44.5,80.3z" class="st2"/>
	</g>
	<g>
		<path d="M65.4,50.4c-1.1,0.9-2.3,1.7-3.5,2.5c-5.1,3.5-6.1,4.9-6.1,11c0,0.2,0,0.4,0,0.6c0,1.1-0.9,2-2,2h-6.8    c-1.1,0-2-0.9-2-2v-0.3c0-3.9,0.3-10.4,2.6-13.6c3.8-5.4,11.9-6.3,11.9-14.2c0-5.2-4.8-8.7-9.7-8.7c-6.4,0-10.1,4.4-10.7,10.1    c-0.1,1.1-1.1,1.8-2.2,1.7l-7.1-0.8c-1.1-0.1-1.9-1.1-1.8-2.2c0.3-2.2,0.7-4.4,1.5-6.6c3.5-8.9,11.7-12.7,20.9-12.7    c11.4,0,21.7,6.8,21.7,19.2C72.2,42.1,69.8,46.8,65.4,50.4z" class="st1"/>
		<path d="M44.4,80.2v-6.6c0-1.7,1.3-3,3-3h6.2c1.7,0,3,1.3,3,3v6.6c0,1.7-1.3,3-3,3h-6.2    C45.8,83.2,44.4,81.9,44.4,80.2z" class="st2"/>
	</g>
	<g>
		<path d="M65.4,50.4c-1.1,0.9-2.3,1.7-3.5,2.5c-5.1,3.5-6.1,4.9-6.1,11c0,0.2,0,0.4,0,0.6c0,1.1-0.9,2-2,2H47    c-1.1,0-2-0.9-2-2v-0.3c0-3.9,0.3-10.4,2.6-13.6c3.8-5.4,11.9-6.3,11.9-14.2c0-5.2-4.8-8.7-9.7-8.7c-6.4,0-10.1,4.4-10.7,10.1    c-0.1,1.1-1.1,1.8-2.2,1.7l-7.1-0.8c-1.1-0.1-1.9-1.1-1.8-2.2c0.3-2.2,0.7-4.4,1.5-6.6C33,20.8,41.2,17,50.4,17    c11.4,0,21.7,6.8,21.7,19.2C72.2,42,69.8,46.8,65.4,50.4z" class="st1"/>
		<path d="M44.4,80.1v-6.6c0-1.7,1.3-3,3-3h6.2c1.7,0,3,1.3,3,3v6.6c0,1.7-1.3,3-3,3h-6.2    C45.7,83.1,44.4,81.8,44.4,80.1z" class="st2"/>
	</g>
	<g>
		<path d="M65.3,50.3c-1.1,0.9-2.3,1.7-3.5,2.5c-5.1,3.5-6.1,4.9-6.1,11c0,0.2,0,0.4,0,0.6c0,1.1-0.9,2-2,2h-6.8    c-1.1,0-2-0.9-2-2V64c0-3.9,0.3-10.4,2.6-13.6c3.8-5.4,11.9-6.3,11.9-14.2c0-5.2-4.8-8.7-9.7-8.7c-6.4,0-10.1,4.4-10.7,10.1    c-0.1,1.1-1.1,1.8-2.2,1.7l-7.1-0.8c-1.1-0.1-1.9-1.1-1.8-2.2c0.3-2.2,0.7-4.4,1.5-6.6C33,20.7,41.2,17,50.4,17    c11.4,0,21.7,6.8,21.7,19.2C72.1,41.9,69.7,46.7,65.3,50.3z" class="st1"/>
		<path d="M44.3,80v-6.6c0-1.7,1.3-3,3-3h6.2c1.7,0,3,1.3,3,3V80c0,1.7-1.3,3-3,3h-6.2C45.6,83,44.3,81.7,44.3,80z" class="st2"/>
	</g>
</g>
<g>
	<path d="M65.3,50.3c-1.1,0.9-2.3,1.7-3.5,2.5c-5.1,3.5-6.1,4.9-6.1,11c0,0.2,0,0.4,0,0.6c0,1.1-0.9,2-2,2h-6.8   c-1.1,0-2-0.9-2-2V64c0-3.9,0.3-10.4,2.6-13.6c3.8-5.4,11.9-6.3,11.9-14.2c0-5.2-4.8-8.7-9.7-8.7c-6.4,0-10.1,4.4-10.7,10.1   c-0.1,1.1-1.1,1.8-2.2,1.7l-7.1-0.8c-1.1-0.1-1.9-1.1-1.8-2.2c0.3-2.2,0.7-4.4,1.5-6.6C33,20.7,41.2,17,50.4,17   c11.4,0,21.7,6.8,21.7,19.2C72.1,41.9,69.7,46.7,65.3,50.3z" class="st3"/>
	<path d="M44.3,80v-6.6c0-1.7,1.3-3,3-3h6.2c1.7,0,3,1.3,3,3V80c0,1.7-1.3,3-3,3h-6.2C45.6,83,44.3,81.7,44.3,80z" class="st4"/>
</g>
<g>
	<g>
		<g>
			<path d="M34.4,30.5c1.7-2.3,4-4.1,6.4-5.5" class="st5"/>
			<path d="M65.5,33.2c0.4,2.8-0.6,5.7-2.2,8" class="st5"/>
			<path d="M50.1,22.5c3-0.1,6,0.4,8.7,1.8c2.7,1.3,4.9,3.6,6.1,6.3" class="st5"/>
			<path d="M58.9,46.1c-2.2,2-4.5,4-6.3,6.4c-1.8,2.4-3.1,5.3-2.8,8.3" class="st5"/>
			<path d="M46,23c0.6-0.1,1.1-0.3,1.7-0.3" class="st5"/>
		</g>
	</g>
</g>
<line y2="80.7" x2="23.8" y1="55.9" x1="23.8" class="st6"/>
<line y2="75.2" x2="29.6" y1="63.9" x1="29.6" class="st6"/>
<line y2="7.6" x2="54.4" y1="7.6" x1="30.8" class="st6"/>
<line y2="11.3" x2="62.6" y1="11.3" x1="37.3" class="st6"/>
<line y2="41.9" x2="81.9" y1="32.1" x1="81.9" class="st6"/>
<line y2="56.4" x2="86.3" y1="24.8" x1="86.3" class="st6"/>
<line y2="72" x2="91.2" y1="72" x1="72.1" class="st6"/>
<line y2="76.7" x2="86.3" y1="76.7" x1="76.9" class="st6"/>
</svg>