<svg xml:space="preserve" style="enable-background:new 0 0 100 100;" viewBox="0 0 100 100" height="100px" width="100px" y="0px" x="0px" xmlns:xlink="http://www.w3.org/1999/xlink" xmlns="http://www.w3.org/2000/svg" id="Layer_1" version="1.1">
<style type="text/css">
	.st0{fill:#A2BFF4;}
	.st1{fill:#8594BD;}
	.st2{fill:#6679AC;}
	.st3{fill:none;stroke:#000000;stroke-width:2;stroke-miterlimit:10;}
	.st4{fill:#0FB981;}
	.st5{fill:#EAB30A;}
	.st6{fill:#F43F5F;}
	.st7{fill:none;stroke:#000000;stroke-width:2;stroke-linecap:round;stroke-miterlimit:10;}
	.st8{fill:#FA7318;}
	.st9{fill:#BB5612;}
	.st10{fill:none;stroke:#000000;stroke-width:2;stroke-linecap:round;stroke-linejoin:round;stroke-miterlimit:10;}
	.st11{fill:none;stroke:#FFFFFF;stroke-linecap:round;stroke-linejoin:round;stroke-miterlimit:10;}
</style>
<path d="M91.6,31.3c-0.4-2.6-1-5.3-3-7.1c-2.5-2.3-6.3-2.4-9.5-3.6c-4-1.5-7-4.9-10.7-6.8c-5.6-2.9-12.3-2.4-18.4-1.2  s-12.3,2.9-18.6,2.3c-3.9-0.4-7.7-1.6-11.7-1.7c-3.9-0.1-8.3,1.2-10.2,4.7c-1.9,3.4-0.6,7.8,1.7,11s5.5,5.5,8.2,8.3  c2.7,2.8,5,6.4,4.7,10.3c-0.4,5.5-5.6,9.2-9.1,13.5c-3.4,4.2-5.4,9.6-5.5,15c-0.1,4.9,1.6,10.1,5.8,12.6c3.8,2.3,8.7,1.8,12.8,0.2  s7.8-4.1,11.9-5.8c6.3-2.6,13.4-3.2,20-1.6c4.8,1.2,9.5,3.5,14.4,3.5c5.9,0.1,11.7-3.4,14.5-8.6c1.3-2.4,1.9-5.1,1.8-7.9  c-0.1-3.1-1.6-5.3-2.3-8.1c-0.6-2.4,1.5-6,2-8.4c0.7-3.2,1.2-6.4,1.4-9.6C92.4,38.6,92.2,34.9,91.6,31.3z" class="st0"/>
<g>
	<path d="M19.1,71.5c-1,0-1.7,1.1-1.2,2C22.7,82,35.3,88,50,88V71.5H19.1z" class="st1"/>
	<path d="M80.9,71.5H50V88c14.7,0,27.3-6,32.1-14.5C82.6,72.6,81.9,71.5,80.9,71.5z" class="st2"/>
</g>
<path d="M19.1,71.5c-1,0-1.7,1.1-1.2,2C22.7,82,35.3,88,50,88s27.3-6,32.1-14.5c0.5-0.9-0.2-2-1.2-2H19.1z" class="st3"/>
<path d="M49.9,24.4c0,0.5,0,0.9,0.2,1.3c0.4,0.7,1.5,0.8,2.3,0.8c4.6,0,9.2,0,13.8,0c1,0,2.2-0.1,2.6-1  c0.5-0.9-0.2-1.9-0.8-2.7c-3.9-5-8.4-9.6-13.4-13.7c-0.7-0.6-3.5-3-4.5-2.6c-0.9,0.4-0.4,4.3-0.4,5.2C49.9,16,49.9,20.2,49.9,24.4z" class="st4"/>
<path d="M50,47.2c0,0.9,0,1.9,0.6,2.5c0.7,0.8,1.8,0.8,2.9,0.8c6.8,0,13.5-0.1,20.3-0.1c1.2,0,2.5-0.1,3.3-1  c0.9-1,0.6-2.6,0.2-3.9c-1.2-4.3-2.6-8.6-4.1-12.8c-0.6-1.5-1.2-3.2-2.5-4.1c-1.2-0.9-2.7-1-4.2-1.1c-4.7-0.3-9.3-0.3-14,0.2  c-0.8,0.1-1.9-0.1-2.2,0.8c-0.3,0.8,0,2.5,0,3.4c0,2.4,0,4.8-0.1,7.3C50,41.8,50,44.5,50,47.2z" class="st5"/>
<path d="M50.1,64.8c7.7,0.4,15.4,0.6,23.1,0.5c1.3,0,2.7-0.1,3.6-1c1-0.9,1.1-2.4,1.1-3.7c0.1-2,0.1-4.1,0.2-6.1  c0-0.9,0-1.9-0.6-2.6c-0.6-0.6-1.5-0.6-2.3-0.6c-5.1,0-10.2,0.1-15.3,0.1c-2.5,0-5,0-7.6,0c-1.3,0-2.2-0.4-2.2,1.1  c0,1.2,0,2.5,0,3.7C50.1,57,50.1,64.8,50.1,64.8z" class="st6"/>
<line y2="5.9" x2="50" y1="71.5" x1="50" class="st7"/>
<g>
	<path d="M20.4,63.9c-0.3,0.6,0.1,1.3,0.8,1.3h20V23.1L20.4,63.9z" class="st8"/>
	<path d="M50,6.5c0-0.2-0.2-0.2-0.3-0.1l-8.5,16.7v42.1H50V6.5z" class="st9"/>
</g>
<path d="M21.2,65.2H50V6.5c0-0.2-0.2-0.2-0.3-0.1L20.4,63.9C20,64.5,20.5,65.2,21.2,65.2z" class="st10"/>
<path d="M75.6,65.2H50V5.9C54.5,8.6,65.3,16,72.2,30.3c6.8,14,6.2,27.1,5.4,33.2C77.4,64.5,76.6,65.2,75.6,65.2z" class="st10"/>
<rect height="4" width="27.8" y="48.9" x="50"/>
<polygon points="71.3,29 50,29 50,25 70.3,25"/>
<line y2="21.2" x2="32.8" y1="21.2" x1="20.3" class="st10"/>
<line y2="30.9" x2="25.5" y1="30.9" x1="17.8" class="st10"/>
<line y2="39.7" x2="22.9" y1="39.7" x1="9.2" class="st10"/>
<g>
	<line y2="19.6" x2="46.8" y1="35.8" x1="38.6" class="st11"/>
	<line y2="38.4" x2="37.2" y1="42.5" x1="35.1" class="st11"/>
	<line y2="44.7" x2="34" y1="54.1" x1="29.3" class="st11"/>
	<line y2="55.8" x2="28.4" y1="61.5" x1="25.5" class="st11"/>
	<path d="M72.9,40.5c2.6,9.6,1.9,17.7,1.3,21.8" class="st11"/>
	<path d="M66,25c1.8,2.8,3.5,5.9,5,9.5c0.4,0.9,0.7,1.9,1,2.8" class="st11"/>
	<path d="M60.3,17.7c1.5,1.6,3,3.5,4.5,5.6" class="st11"/>
	<path d="M52.5,10.7c1.4,1,3.4,2.6,5.6,4.8" class="st11"/>
</g>
</svg>