<svg viewBox="0 0 100 100" version="1.1" height="100" width="100" xmlns="http://www.w3.org/2000/svg" data-name="Layer 1" id="Layer_1">
  <defs>
    <style>
      .cls-1 {
        fill: #061434;
        stroke-width: 0px;
      }
    </style>
  </defs>
  <path d="M49.3,95.5c-2.1,0-4.3-.1-6.4-.3-1.4-.1-2.4-1.4-2.2-2.7s1.4-2.4,2.7-2.2c3.9.4,7.8.4,11.7,0,1.4-.1,2.6.9,2.7,2.2.1,1.4-.9,2.6-2.2,2.7-2.1.2-4.2.3-6.4.3ZM49.3,86.3c-3.2,0-6.4-.3-9.6-.9-1.4-.3-2.3-1.6-2-2.9.3-1.4,1.6-2.2,2.9-2,5.8,1.1,11.6,1.1,17.4,0,1.4-.3,2.7.6,2.9,2,.3,1.4-.6,2.7-2,2.9-3.2.6-6.4.9-9.6.9ZM58.5,77.1c-1.4,0-2.5-1.1-2.5-2.5v-.8c0-4.6,2.8-8.9,7.4-11.6,13.4-7.8,18-25,10.2-38.4-7.8-13.4-25-18-38.4-10.2-13.4,7.8-18,25-10.2,38.4,2.5,4.2,6,7.8,10.2,10.2,4.6,2.7,7.4,7,7.4,11.6v.8c0,1.4-1.1,2.5-2.5,2.5s-2.5-1.1-2.5-2.5v-.8c0-2.8-1.8-5.5-4.9-7.3-5-2.9-9.2-7.1-12.1-12.1-9.1-15.8-3.7-36.1,12.1-45.2,15.8-9.1,36.1-3.7,45.2,12.1,9.1,15.8,3.7,36.1-12.1,45.2-3.1,1.8-4.9,4.5-4.9,7.3v.8c0,1.4-1.1,2.5-2.5,2.5ZM49.3,77.1c-1.4,0-2.5-1.1-2.5-2.5v-19c-1.4-.1-2.8-.4-4.2-.7-1.3-.3-2.1-1.7-1.8-3,.3-1.3,1.7-2.1,3-1.8,1.8.5,3.6.7,5.5.7s0,0,0,0h0c1.8,0,3.7-.2,5.5-.7,1.3-.3,2.7.5,3,1.8.3,1.3-.5,2.7-1.8,3-1.4.4-2.8.6-4.2.7v19c0,1.4-1.1,2.5-2.5,2.5Z" class="cls-1"/>
</svg>