<svg viewBox="0 0 100 100" xmlns="http://www.w3.org/2000/svg"><path d="M13 27A2 2 0 1 0 13 31A2 2 0 1 0 13 27Z" fill="#ee3e54"/><path d="M77 12A1 1 0 1 0 77 14A1 1 0 1 0 77 12Z" fill="#f1bc19"/><path d="M50 13A37 37 0 1 0 50 87A37 37 0 1 0 50 13Z" fill="#fce0a2"/><path d="M83 11A4 4 0 1 0 83 19A4 4 0 1 0 83 11Z" fill="#f1bc19"/><path d="M87 22A2 2 0 1 0 87 26A2 2 0 1 0 87 22Z" fill="#ee3e54"/><path d="M81 74A2 2 0 1 0 81 78 2 2 0 1 0 81 74zM15 59A4 4 0 1 0 15 67 4 4 0 1 0 15 59z" fill="#fbcd59"/><path d="M25 85A2 2 0 1 0 25 89A2 2 0 1 0 25 85Z" fill="#ee3e54"/><path d="M18.5 51A2.5 2.5 0 1 0 18.5 56A2.5 2.5 0 1 0 18.5 51Z" fill="#fff"/><path d="M21 66A1 1 0 1 0 21 68A1 1 0 1 0 21 66Z" fill="#f1bc19"/><path d="M80 33A1 1 0 1 0 80 35A1 1 0 1 0 80 33Z" fill="#fff"/><g><path d="M35,72.3c-4,0-7.3-3.3-7.3-7.3V35c0-4,3.3-7.3,7.3-7.3h30c4,0,7.3,3.3,7.3,7.3v30c0,4-3.3,7.3-7.3,7.3H35z" fill="#78a2d2"/><path d="M65,28.4c3.6,0,6.6,3,6.6,6.6v30c0,3.6-3,6.6-6.6,6.6H35c-3.6,0-6.6-3-6.6-6.6V35c0-3.6,3-6.6,6.6-6.6H65 M65,27H35c-4.4,0-8,3.6-8,8v30c0,4.4,3.6,8,8,8h30c4.4,0,8-3.6,8-8V35C73,30.6,69.4,27,65,27L65,27z" fill="#472b29"/></g><g><path d="M68.5,47.4c-0.3,0-0.5-0.2-0.5-0.5V43c0-0.3,0.2-0.5,0.5-0.5S69,42.7,69,43v3.9C69,47.2,68.8,47.4,68.5,47.4z" fill="#472b29"/></g><g><path d="M68.5,40.5c-0.3,0-0.5-0.2-0.5-0.5v-2c0-0.3,0.2-0.5,0.5-0.5S69,37.7,69,38v2C69,40.3,68.8,40.5,68.5,40.5z" fill="#472b29"/></g><g><path d="M64,69H36c-2.8,0-5-2.2-5-5V36c0-2.8,2.2-5,5-5h25.4c0.3,0,0.5,0.2,0.5,0.5S61.7,32,61.4,32H36 c-2.2,0-4,1.8-4,4v28c0,2.2,1.8,4,4,4h28c2.2,0,4-1.8,4-4V49.6c0-0.3,0.2-0.5,0.5-0.5s0.5,0.2,0.5,0.5V64C69,66.8,66.8,69,64,69z" fill="#472b29"/></g><g><path d="M52.3,58.2c0,0.9,1,1.4,3,1.4v1.8H44.7v-1.8c2,0,3-0.5,3-1.4v-9.6c0-1-1-1.5-3-1.5v-1.8h7.7V58.2z M52.8,40.1 c0,0.7-0.3,1.4-0.8,1.9s-1.3,0.8-2.1,0.8c-0.4,0-0.8-0.1-1.2-0.2c-0.4-0.1-0.7-0.3-0.9-0.6s-0.5-0.5-0.6-0.9 c-0.2-0.3-0.2-0.7-0.2-1.1c0-0.8,0.3-1.4,0.9-1.9c0.6-0.5,1.3-0.8,2.1-0.8c0.8,0,1.5,0.3,2.1,0.8C52.5,38.7,52.8,39.3,52.8,40.1z" fill="#fdfcee"/><path d="M55.8,62H44.2v-2.8h0.5c1.1,0,2.5-0.2,2.5-0.9v-9.6c0-0.8-1.3-1-2.5-1h-0.5v-2.8h8.7l0,13.4 c0,0.2,0,0.3,0.1,0.4c0.2,0.2,0.7,0.5,2.4,0.5h0.5V62z M45.2,61h9.7v-0.8c-1.3-0.1-2.1-0.3-2.6-0.8c-0.3-0.3-0.4-0.7-0.4-1.1V45.9 h-6.7v0.8c2,0.1,3,0.7,3,1.9v9.6c0,1.2-1,1.8-3,1.9V61z M49.8,43.3c-0.5,0-0.9-0.1-1.3-0.3c-0.4-0.2-0.8-0.4-1.1-0.7 c-0.3-0.3-0.6-0.6-0.7-1c-0.2-0.4-0.3-0.8-0.3-1.3c0-0.9,0.4-1.7,1-2.3c0.7-0.6,1.5-0.9,2.4-0.9c0.9,0,1.7,0.3,2.4,0.9 c0.7,0.6,1,1.4,1,2.3c0,0.9-0.3,1.6-1,2.3C51.6,43,50.8,43.3,49.8,43.3z M49.8,37.9c-0.7,0-1.3,0.2-1.8,0.6 c-0.5,0.4-0.7,0.9-0.7,1.5c0,0.3,0.1,0.6,0.2,0.8c0.1,0.3,0.3,0.5,0.5,0.7c0.2,0.2,0.5,0.4,0.8,0.5c0.3,0.1,0.6,0.2,1,0.2 c0.7,0,1.3-0.2,1.7-0.7c0.5-0.4,0.7-0.9,0.7-1.5c0-0.6-0.2-1.1-0.7-1.5C51.1,38.1,50.5,37.9,49.8,37.9z" fill="#472b29"/></g></svg>