<svg viewBox="0 0 100 100" version="1.1" height="100" width="100" xmlns="http://www.w3.org/2000/svg" data-name="Layer 1" id="Layer_1">
  <defs>
    <style>
      .cls-1 {
        fill: #061434;
        stroke-width: 0px;
      }
    </style>
  </defs>
  <path d="M49.3,92.9c-8,0-16-2.2-23.2-6.6,0,0,0,0,0,0-2.9-1.8-5.7-4-8.1-6.4-2.4-2.4-4.6-5.2-6.4-8.1,0,0,0,0,0,0-8.8-14.3-8.8-32.1,0-46.4,0,0,0,0,0,0,1.8-2.9,4-5.7,6.4-8.1,2.4-2.4,5.2-4.6,8.1-6.4,0,0,0,0,0,0,14.3-8.8,32.1-8.8,46.4,0,0,0,0,0,0,0,2.9,1.8,5.7,4,8.1,6.4,2.4,2.4,4.6,5.2,6.4,8.1,0,0,0,0,0,0,8.8,14.3,8.8,32.1,0,46.4,0,0,0,0,0,0-1.8,2.9-4,5.7-6.4,8.1-2.4,2.4-5.2,4.6-8.1,6.4,0,0,0,0,0,0-7.2,4.4-15.2,6.6-23.2,6.6ZM31.1,83.5c11.4,5.9,24.9,5.9,36.4,0l-13.1-15.8c-3.3.9-6.8.9-10.1,0l-13.1,15.8ZM16.8,70.9c1.4,2,2.9,3.8,4.6,5.5,1.7,1.7,3.5,3.2,5.5,4.6l12.6-15.1c-1.6-.9-3-2-4.3-3.3-1.3-1.3-2.4-2.7-3.2-4.3l-15.1,12.6ZM59.1,65.8l12.6,15.1c2-1.4,3.8-2.9,5.5-4.6,1.7-1.7,3.2-3.5,4.6-5.5l-15.1-12.6c-.9,1.6-2,3-3.2,4.3-1.3,1.3-2.7,2.4-4.3,3.3ZM68.6,53.5l15.8,13.1c6-11.4,6-24.9,0-36.4l-15.8,13.1c.9,3.3.9,6.8,0,10.1ZM14.3,30.3c-5.9,11.4-5.9,24.9,0,36.4l15.8-13.1c-.9-3.3-.9-6.8,0-10.1l-15.8-13.1ZM44.3,62.6c3.2,1.1,6.8,1.1,10,0,0,0,0,0,.1,0,2.1-.7,4-1.9,5.5-3.5,1.6-1.6,2.8-3.5,3.5-5.5,0,0,0,0,0,0,1.1-3.2,1.1-6.8,0-10,0,0,0,0,0-.1-.7-2.1-1.9-4-3.5-5.5-1.6-1.6-3.5-2.8-5.5-3.5,0,0,0,0-.1,0-3.2-1.1-6.8-1.1-10,0,0,0,0,0-.1,0-2.1.7-4,1.9-5.5,3.5-1.6,1.6-2.8,3.4-3.5,5.5,0,0,0,0,0,0-1.1,3.2-1.1,6.8,0,10,0,0,0,0,0,.1.7,2.1,1.9,4,3.5,5.5,1.6,1.6,3.5,2.8,5.5,3.5,0,0,0,0,.1,0ZM16.8,26.1l15.1,12.6c.9-1.5,2-3,3.3-4.3,1.3-1.3,2.7-2.4,4.3-3.3l-12.6-15.1c-2,1.4-3.8,2.9-5.5,4.6-1.7,1.7-3.2,3.5-4.6,5.5ZM59.1,31.2c1.6.9,3,2,4.3,3.3,1.3,1.3,2.4,2.7,3.2,4.3l15.1-12.6c-1.4-2-2.9-3.8-4.6-5.5-1.7-1.7-3.5-3.2-5.5-4.6l-12.6,15.1ZM31.1,13.5l13.1,15.8c3.3-.9,6.8-.9,10.1,0l13.1-15.8c-11.4-5.9-24.9-5.9-36.4,0Z" class="cls-1"/>
</svg>