<svg viewBox="0 0 100 100" version="1.1" height="100" width="100" xmlns="http://www.w3.org/2000/svg" data-name="Layer 1" id="Layer_1">
  <defs>
    <style>
      .cls-1 {
        fill: #061434;
        stroke-width: 0px;
      }
    </style>
  </defs>
  <path d="M39.4,95.2c-1.4,0-2.5-1.1-2.5-2.5v-19c-.1,0-.3-.2-.4-.3-4.2-3.3-8-7.2-11.4-11.4-.1-.1-.2-.3-.3-.4H5.8c-1.4,0-2.5-1.1-2.5-2.5,0-2.3.3-4.6.8-6.8,3.6-15.2,18.5-24.9,33.7-22.2C50.9,13,71.5,2.8,93.1,2.8h0c1.4,0,2.5,1.1,2.5,2.5,0,21.7-10.2,42.2-27.3,55.3.3,1.7.4,3.4.4,5.1,0,16.2-13.2,29.4-29.4,29.4ZM42,73.2v16.8c12.2-1.3,21.8-11.6,21.8-24.2,0-.6,0-1.2,0-1.8-6.6,4.3-14,7.4-21.7,9.2ZM29.8,59.8c2.7,3.3,5.7,6.2,8.9,8.9,0,0,0,0,.1,0,0,0,0,0,.1,0,9-1.8,17.6-5.6,25-11,0,0,0,0,.2-.1,15.9-11.6,25.7-30,26.4-49.6-19.6.8-38,10.5-49.6,26.4,0,0,0,0,0,0-5.4,7.4-9.2,16.1-11.1,25.1v.2ZM8.5,56.5h16.8c1.8-7.7,4.9-15.1,9.2-21.7-11.7-.9-22.7,6.9-25.5,18.7-.2,1-.4,2-.5,3.1ZM12.6,91.8h0c-1.2,0-2.4,0-3.5-.3-1.1-.2-1.9-1-2.1-2.1-1.3-8.4,2.1-16.7,8.9-21.7,1.1-.8,2.7-.6,3.6.5.8,1.1.6,2.7-.5,3.6-4.7,3.5-7.3,9.1-7.1,14.9.3,0,.5,0,.8,0,5.5,0,10.8-2.6,14.1-7.1.8-1.1,2.4-1.4,3.6-.5,1.1.8,1.4,2.4.5,3.6-4.3,5.7-11.1,9.1-18.2,9.1ZM62.9,44.8c-5.1,0-9.3-4.2-9.3-9.3s4.2-9.3,9.3-9.3,9.3,4.2,9.3,9.3-4.2,9.3-9.3,9.3ZM62.9,31.4c-2.3,0-4.2,1.9-4.2,4.2s1.9,4.2,4.2,4.2,4.2-1.9,4.2-4.2-1.9-4.2-4.2-4.2Z" class="cls-1"/>
</svg>