<svg id="Layer_1" xmlns="http://www.w3.org/2000/svg" width="192" height="192" version="1.1" viewBox="0 0 192 192">
  
  <defs>
    <style>
      .st0 {
        fill: #fff;
      }
    </style>
  </defs>
  <rect width="192" height="192"/>
  <path class="st0" d="M48.1,123.5c-.7.7-.7,1.8,0,2.5.4.4.9.7,1.4.7s.7-.1,1-.3c15-9.9,31-10.6,41.8-9.4,11.8,1.4,20.1,5.1,20.2,5.2.6.3,1.3.2,1.9-.2.6-.4.8-1.1.8-1.7-1.3-11.7-5.6-23.2-12.6-34.1-5.6-8.7-13-17.1-21.9-24.8-15.2-13.2-29.5-20.1-30.1-20.4-.7-.4-1.6-.2-2.2.4s-.7,1.5-.3,2.2c6.5,11.4,10.6,22.7,12.1,33.6,1.2,8.7.7,17.1-1.4,25.1-3.5,13.6-10.6,21.2-10.7,21.3ZM63.8,76.8c-1.3-9.6-4.5-19.6-9.6-29.6,5.5,3.2,14.6,8.9,23.9,17,8.7,7.6,15.8,15.7,21.2,24.1,6.1,9.5,10,19.4,11.6,29.4-3.6-1.3-10-3.3-18.2-4.3-9.7-1.1-23.3-.8-37,5.7,2.2-3.8,4.8-9.1,6.5-15.7,2.2-8.5,2.8-17.4,1.5-26.6ZM84.8,58.4c1.5,1,26,17,36.9,59.6.3.9,1.1,1.5,2.1,1.4.1,0,9.3-1.5,14.6,2.2.3.2.7.3,1,.3s.8-.1,1.1-.3c.6-.4.9-1.2.7-2-.1-.5-3.2-11.7-11.4-25.3-7.6-12.5-21.3-29.5-43.3-39.2-.6-.3-1.2-.3-1.8,0-.6.3-1,1-1,1.6,0,.7.4,1.3,1,1.6ZM126.6,96.1c5.1,8.4,8.3,16.1,9.8,20.4-2.8-.9-5.8-1.1-8.3-1.1s-2.4,0-3.3.1c-6.1-22.7-16-37.8-23.2-46.4-.7-.8-1.4-1.6-2-2.3,12.7,9,21.4,20.3,26.9,29.3ZM160.2,147.6c-1,0-2-.4-2.8-1l-8-5.8c-3.1-2.3-7.1-2.3-10.2,0l-8,5.8c-1.8,1.3-4.1,1.3-5.9,0l-.6-.4c19.1-9.1,28.3-18.2,28.7-18.6.6-.6.7-1.4.4-2.1-.3-.7-1-1.1-1.8-1.1l-111.5,7c-.6,0-1.2.4-1.5,1-.3.6-.3,1.2,0,1.8l3.8,6.6s0,0,0,0l-8,5.8c-.9.6-1.9,1-2.9,1-1,0-1.8.8-1.8,1.9s.8,1.8,1.9,1.8c1.8,0,3.5-.6,5-1.7l8-5.8c1.8-1.3,4.1-1.3,5.9,0l8,5.8c1.5,1.1,3.3,1.7,5.1,1.7s3.6-.6,5.1-1.7l8-5.8c1.8-1.3,4.1-1.3,5.9,0l8,5.8c3.1,2.3,7.1,2.3,10.2,0l8-5.8c1.8-1.3,4.1-1.3,5.9,0l8,5.8c3.1,2.2,7.1,2.3,10.2,0l8-5.8c1.8-1.3,4.1-1.3,5.9,0l8,5.8c1.5,1.1,3.2,1.7,5,1.7h0c1,0,1.8-.8,1.8-1.8,0-1-.8-1.9-1.8-1.9ZM107,140.7l-8,5.8c-1.8,1.3-4.1,1.3-5.9,0l-8-5.8c-3.1-2.2-7.1-2.2-10.2,0l-8,5.8c-1.8,1.3-4.1,1.3-5.9,0l-8-5.8c-2.1-1.5-4.5-2-6.8-1.5l-2.5-4.4,103-6.5c-1,.8-2.1,1.7-3.4,2.6-4.5,3.2-11.9,8-22,12.7l-4-2.9c-3.1-2.2-7.1-2.2-10.2,0Z"/>
</svg>