<svg xml:space="preserve" style="enable-background:new 0 0 96 96;" viewBox="0 0 96 96" height="96px" width="96px" y="0px" x="0px" xmlns:xlink="http://www.w3.org/1999/xlink" xmlns="http://www.w3.org/2000/svg" id="Layer_1" version="1.1">
<path d="M16,66.4c-0.4,0.5-0.5,1.2,0,1.6c0.2,0.3,0.6,0.4,1,0.4c0.2,0,0.5-0.1,0.7-0.2c10-6.6,20.7-7.1,27.9-6.2  c7.9,0.9,13.4,3.4,13.5,3.5c0.4,0.2,0.9,0.1,1.2-0.1c0.4-0.3,0.6-0.7,0.5-1.2c-0.9-7.8-3.7-15.5-8.4-22.8  c-3.7-5.8-8.7-11.4-14.6-16.6C27.5,16,18,11.4,17.6,11.2c-0.5-0.2-1.1-0.1-1.4,0.3c-0.4,0.4-0.4,1-0.2,1.4  c4.4,7.6,7.1,15.2,8.1,22.5c0.8,5.8,0.5,11.4-0.9,16.8C20.8,61.2,16.1,66.3,16,66.4z M26.5,35.2c-0.9-6.4-3-13.1-6.4-19.8  c3.7,2.1,9.7,5.9,15.9,11.3c5.8,5,10.6,10.5,14.2,16.1c4.1,6.3,6.7,12.9,7.8,19.7c-2.4-0.9-6.7-2.2-12.1-2.8  c-6.5-0.7-15.6-0.5-24.7,3.8c1.5-2.5,3.2-6,4.4-10.5C27,47.3,27.4,41.3,26.5,35.2z M40.5,22.9c1,0.6,17.3,11.4,24.7,39.8  c0.2,0.6,0.8,1,1.4,0.9c0.1,0,6.2-1,9.8,1.4c0.2,0.1,0.4,0.2,0.7,0.2s0.5-0.1,0.7-0.2c0.4-0.3,0.6-0.8,0.5-1.3  c-0.1-0.3-2.1-7.8-7.6-16.9c-5.1-8.4-14.3-19.7-28.9-26.2c-0.4-0.2-0.8-0.2-1.2,0c-0.4,0.2-0.6,0.6-0.6,1.1  C39.9,22.2,40.1,22.7,40.5,22.9z M68.4,48.1c3.4,5.6,5.5,10.7,6.6,13.6c-1.9-0.6-3.9-0.8-5.5-0.8c-0.9,0-1.6,0-2.2,0.1  c-4.1-15.2-10.7-25.2-15.5-31c-0.4-0.5-0.9-1.1-1.3-1.5C59,34.5,64.8,42.1,68.4,48.1z M90.9,82.4c-0.7,0-1.3-0.2-1.9-0.7l-5.4-3.9  c-2.1-1.5-4.8-1.5-6.8,0l-5.4,3.9c-1.2,0.9-2.7,0.9-3.9,0l-0.4-0.3C79.8,75.4,86,69.3,86.3,69c0.4-0.4,0.5-0.9,0.2-1.4  c-0.2-0.5-0.7-0.8-1.2-0.7l-74.5,4.7c-0.4,0-0.8,0.3-1,0.6c-0.2,0.4-0.2,0.8,0,1.2l2.5,4.4c0,0,0,0,0,0l-5.4,3.9  c-0.6,0.4-1.2,0.6-1.9,0.7c-0.7,0-1.2,0.6-1.2,1.2c0,0.7,0.6,1.2,1.2,1.2c1.2,0,2.3-0.4,3.3-1.1l5.3-3.9c1.2-0.9,2.7-0.9,3.9,0  l5.4,3.9c1,0.8,2.2,1.1,3.4,1.1c1.2,0,2.4-0.4,3.4-1.1l5.4-3.9c1.2-0.9,2.7-0.9,3.9,0l5.4,3.9c2.1,1.5,4.8,1.5,6.8,0l5.4-3.9  c1.2-0.9,2.7-0.9,3.9,0l5.4,3.9c2.1,1.5,4.8,1.5,6.8,0l5.4-3.9c1.2-0.9,2.7-0.9,3.9,0l5.4,3.9c1,0.7,2.1,1.1,3.3,1.1h0  c0.7,0,1.2-0.5,1.2-1.2C92.1,83,91.5,82.4,90.9,82.4z M55.3,77.9L50,81.8c-1.2,0.9-2.7,0.9-3.9,0l-5.4-3.9c-2.1-1.5-4.8-1.5-6.8,0  l-5.4,3.9c-1.2,0.9-2.7,0.9-3.9,0l-5.4-3.9c-1.4-1-3-1.3-4.5-1L13,74l68.8-4.3c-0.7,0.5-1.4,1.1-2.3,1.7c-3,2.2-7.9,5.3-14.7,8.4  l-2.7-2C60.1,76.4,57.4,76.4,55.3,77.9z"/>
</svg>